<?xml version="1.0" standalone="no"?>
<!DOCTYPE svg PUBLIC "-//W3C//DTD SVG 1.1//EN" "http://www.w3.org/Graphics/SVG/1.1/DTD/svg11.dtd" >
<svg>
<metadata>
Created by FontForge 20090914 at Thu Feb 23 21:59:49 2012
 By root
Generated by Fontographer 4.1.5
</metadata>
<defs>
<font id="Anmari" horiz-adv-x="1568" >
  <font-face 
    font-family="Anmari"
    font-weight="400"
    font-stretch="normal"
    units-per-em="3348"
    panose-1="0 0 4 0 0 0 0 0 0 0"
    ascent="2678"
    descent="-670"
    x-height="1228"
    cap-height="1807"
    bbox="-720 -862 3265 2497"
    underline-thickness="20"
    underline-position="-123"
    unicode-range="U+0020-U+2211"
  />
<missing-glyph horiz-adv-x="1674" 
d="M209 0v2496h1256v-2496h-1256zM419 209h837v2078h-837v-2078z" />
    <glyph glyph-name=".notdef" horiz-adv-x="1674" 
d="M209 0v2496h1256v-2496h-1256zM419 209h837v2078h-837v-2078z" />
    <glyph glyph-name=".null" horiz-adv-x="0" 
 />
    <glyph glyph-name="nonmarkingreturn" horiz-adv-x="1154" 
 />
    <glyph glyph-name="space" unicode=" " horiz-adv-x="1154" 
 />
    <glyph glyph-name="exclam" unicode="!" horiz-adv-x="979" 
d="M177 1743q41 -167 94 -674q59 -561 85 -708q2 -11 2 -22q0 -93 -94 -107q-83 208 -157 851q-85 739 -123 899l37 129q140 -22 140 -146q0 -18 -2.5 -58t-2.5 -60q0 -63 21 -104zM555 -209q21 -45 21 -81q0 -77 -98 -122l-162 -55q-184 13 -313 175q-6 93 115 176
q145 101 170 156q11 1 21 1q83 0 149 -92z" />
    <glyph glyph-name="quotedbl" unicode="&#x22;" horiz-adv-x="902" 
d="M205 2003q16 -136 20 -300q4 -118 1 -301q-3 -259 -3 -301q-22 -11 -44 -11q-55 0 -94 57q-37 52 -37 110q-25 91 -25 180q0 88 36.5 252t36.5 264q0 25 -1 50h110zM595 1719q0 -78 15.5 -227.5t15.5 -220.5q0 -57 -7 -106q-15 -1 -28 -1q-136 0 -136 162q0 38 8.5 129
t8.5 137q0 95 -28 153v221q24 6 45 6q113 0 113 -123q0 -21 -3.5 -64.5t-3.5 -65.5z" />
    <glyph glyph-name="numbersign" unicode="#" horiz-adv-x="2509" 
d="M1298 1034q-42 85 -223 85q-111 0 -178 -34q4 -20 -23.5 -51t-27.5 -45q0 -19 30 -38q40 20 247 26q117 4 175 57zM1680 1435q46 -29 133 -29q26 0 80.5 3.5t79.5 3.5q158 0 181 -132q-69 -100 -228 -120l-298 -35q-68 -41 -51 -123q51 -28 187 -39.5t189 -38.5
q89 -46 98 -170q-51 -32 -143 -32q-40 0 -121 7.5t-119 7.5q-194 0 -194 -189q0 -248 -4 -278q-20 -157 -120 -216l-102 24q-65 17 -73 79q-3 19 -3 39q0 64 39 181.5t39 174.5q0 81 -55 151q-41 -14 -91 -14q-47 0 -138 17.5t-133 17.5q-99 0 -163 -73q-34 -425 -175 -649
q-83 -17 -124 52q6 133 13 266q18 149 90 228q12 27 12 51q0 101 -167 124q-257 37 -319 207q4 98 64 98q20 0 70 -14t76 -14q57 0 89 53q41 -49 122 -49q61 0 105 29q4 6 43 42q29 26 29 50q-32 51 -90 51q-39 0 -96 -25.5t-62 -25.5q25 41 25 71q0 58 -125 105
q-146 55 -178 103v103q89 0 303 -56q205 -53 326 -47q11 50 109 398q68 241 87 405q10 3 20 3q33 0 71 -42q50 -56 63 -64q9 -49 9 -102q0 -110 -46 -287q-57 -219 -66 -281q52 -79 134 -79q34 0 111.5 19t119.5 19q36 0 68 -10q65 152 127 456q68 328 120 471
q152 -97 152 -279q0 -90 -50.5 -283.5t-50.5 -282.5q0 -16 1 -31z" />
    <glyph glyph-name="dollar" unicode="$" horiz-adv-x="2101" 
d="M676 426q240 -40 381 -40q217 0 406 78q-20 74 -124 126l-175 85q-191 10 -423 75zM643 1713q-212 -22 -389 -153q-172 -128 -232 -298q84 -122 259 -182l271 -93q48 354 91 726zM1253 1606q-4 -15 -4 -46v-2q0 -63 -29 -85q-106 120 -328 177q-37 -298 -111 -694
q234 -45 385 -141q165 -60 256 -129l174 -144q81 -37 81 -133q0 -16 -2 -50.5t-2 -52.5q0 -16 1 -31q-160 -133 -382 -133q-114 0 -323 43q-231 48 -330 54q-45 -226 -74 -389l56 -27q-24 -24 -54 -193q-25 -133 -121 -133q-15 0 -31 3q-60 56 -60 141q0 38 19 129
q18 86 15 131l53 328l-43 -9q-32 13 -212 42q-129 20 -187 91q-9 24 -9 45q0 94 123 94q22 0 41 -6q138 0 322 -28l53 368q-81 55 -301 76q-203 19 -307 116q-113 60 -113 183q0 55 26 156q29 110 32 149q358 358 687 399q47 -15 108 -26q25 219 48 446l82 168
q153 -23 153 -138q0 -22 -5.5 -67t-5.5 -68q0 -12 1 -23q-5 -170 -22 -356q254 -49 340 -235z" />
    <glyph glyph-name="percent" unicode="%" horiz-adv-x="2671" 
d="M1738 2194q-156 -410 -473 -974l-546 -944l40 -40q-33 -17 -95 -134q-54 -103 -115 -103q-29 0 -64 19q-21 39 -21 79q0 55 49 139q59 99 69 137q491 904 999 1999l121 121q100 -52 100 -119q0 -33 -27 -89q-32 -66 -37 -91zM856 1824q-61 92 -173 153t-225 61
q-125 0 -207 -77q0 -12 19 -35t19 -35q0 -15 -21 -27l-41 40q-102 -17 -113 -80q-16 -38 -16 -88q0 -104 73 -130q167 -80 360 -80q95 0 172 23q142 117 153 275zM912 1961q22 -85 22 -154q0 -125 -78 -258q-82 -102 -222 -165l-246 -92q-347 34 -411 233q-83 79 -83 191
q0 78 59 245q55 155 258 217q258 -16 378 -45q200 -49 323 -172zM2154 1042q-40 18 -84 18q-84 0 -214 -83l-86 -132q-52 -84 -52 -143q0 -42 25 -80q31 -17 78 -17q121 0 212 82l93 125q50 77 50 140q0 45 -22 90zM2267 1074q0 -365 -234 -548q-35 -15 -172 -105
q-98 -64 -172 -64q-41 0 -83 16q-168 90 -168 237q0 26 6 53q45 187 163 334q124 155 289 214q42 4 79 4q212 0 292 -141z" />
    <glyph glyph-name="ampersand" unicode="&#x26;" horiz-adv-x="2056" 
d="M882 1988q-53 94 -154 94q-54 0 -160 -35.5t-106 -142.5q0 -21 6 -43q10 -14 25 -117q12 -77 60 -77q18 0 42 8q202 74 287 313zM1067 426q-247 443 -658 785q-173 -63 -228 -228q-41 -123 -41 -230q0 -201 142 -343q218 -87 364 -87q126 0 210 61q26 -23 51 -23
q24 0 70 33.5t75 33.5q8 0 15 -2zM1109 2004q12 -45 12 -89q0 -165 -168 -310q-45 -39 -316 -217q-2 -12 -2 -25q0 -122 170 -265q203 -170 237 -241q40 -37 117 -158q65 -104 136 -146q136 79 211 267l110 324q15 5 29 5q57 0 97 -81q-5 -108 -41 -246l-60 -227
q-156 -59 -156 -155q0 -64 88 -191q97 -138 110 -194v-42q-36 -14 -69 -14q-80 0 -175 123t-170 123q-39 0 -84 -21q-187 -125 -425 -125q-297 0 -621 184q-184 281 -184 562q0 100 24 197q10 131 117 244l212 187q2 15 2 30q0 64 -43 154q-52 109 -61 145q13 122 76 346
q202 163 387 163q91 0 187 -37q208 -150 253 -270z" />
    <glyph glyph-name="quotesingle" unicode="'" horiz-adv-x="498" 
d="M110 2003q16 -136 21 -300q3 -118 1 -301q-3 -259 -3 -301q-23 -11 -45 -11q-54 0 -94 57q-36 52 -36 110q-26 91 -26 180q0 88 37 252t37 264q0 25 -2 50h110z" />
    <glyph glyph-name="parenleft" unicode="(" horiz-adv-x="1353" 
d="M1030 1787v-74q-80 37 -154 37q-117 0 -228 -98q-71 -61 -183 -213q-117 -158 -172 -210l-118 -349q-64 -210 -64 -371q0 -124 35 -239q228 -416 884 -600q10 -12 10 -24q0 -26 -48 -67q-57 -51 -67 -67q-66 -17 -128 -17q-178 0 -374 155l-330 272q-149 268 -149 592
q0 592 433 1146q200 256 431 256q140 0 222 -129z" />
    <glyph glyph-name="parenright" unicode=")" horiz-adv-x="1023" 
d="M538 1506q243 -423 243 -892q0 -216 -51 -440q-225 -366 -259 -408q-182 -226 -388 -226q-39 0 -80 8q-44 76 -44 121q0 65 140 87q161 25 197 85q314 330 314 705q0 30 -2 62q-23 378 -193 691q-181 333 -483 499q-29 16 -141 18q-97 1 -131 53q30 134 169 134
q44 0 138.5 -16.5t136.5 -16.5z" />
    <glyph glyph-name="asterisk" unicode="*" horiz-adv-x="2357" 
d="M1028 1941v-170q120 -4 348.5 163t342.5 167q83 0 158 -60q17 -46 17 -78q0 -75 -120 -106q-139 -35 -166 -86l-240 -189q52 -40 129 -40q59 0 174 31t161 31q131 0 145 -192q-67 -95 -227 -116q-188 -25 -242 -64l112 -112q67 -74 67 -142q0 -27 -10 -55
q-46 -23 -88 -23q-79 0 -191 125q-115 129 -200 137q-27 -34 -27 -78q0 -25 12 -76.5t12 -76.5q0 -44 -27 -78q-35 -28 -69 -28q-41 0 -90 42l-80 76v67q0 41 -30 53q-93 -21 -217 -176q-115 -146 -187 -146q-58 0 -126 62q-11 36 -11 71q0 67 50 152l81 136q-23 2 -56 2
h-91q-249 2 -342 118q25 176 314 176q22 0 68.5 -1t70.5 -1q135 0 206 26q-40 72 -207 191q-139 99 -139 181q0 48 36 107q17 3 32 3q89 0 214 -119t214 -123q24 45 24 97q0 48 -26 129t-26 114q0 76 98 119z" />
    <glyph glyph-name="plus" unicode="+" 
d="M746 1058q-4 -23 -4 -47q0 -185 142 -201q25 -3 57 -3q25 0 77.5 2.5t78.5 2.5q118 0 183 -48q0 -120 -65 -129q-18 1 -37 1q-181 0 -405 -93q-1 -12 -1 -26q0 -44 23 -142t23 -143q0 -104 -91 -149q-104 29 -139 179l-36 262q-70 46 -220 25q-184 -27 -221 -21
q-103 17 -111 153q78 84 236 102l270 27q31 70 6 180q-34 148 -34 177q0 73 47 131q23 5 44 5q136 0 177 -245z" />
    <glyph glyph-name="comma" unicode="," horiz-adv-x="1151" 
d="M830 -208q2 -25 2 -49q0 -202 -183 -359q-21 -19 -353 -236q-442 0 -617 92v92q384 -33 390 -33q235 0 356 98q257 123 257 454q0 57 -9 116q-4 117 -179 259.5t-175 232.5q0 42 23 88q429 -147 488 -755z" />
    <glyph glyph-name="hyphen" unicode="-" 
d="M1280 506q7 -20 7 -37q0 -78 -102 -78q-18 0 -34 5q-50 3 -103 3q-121 0 -335 -24t-314 -24q-219 0 -399 81q77 165 302 165q40 0 125 -5.5t128 -5.5q114 0 191 31q30 -2 70 -2h106q265 -2 358 -109z" />
    <glyph glyph-name="hyphen" unicode="&#x2010;" 
d="M1280 506q7 -20 7 -37q0 -78 -102 -78q-18 0 -34 5q-50 3 -103 3q-121 0 -335 -24t-314 -24q-219 0 -399 81q77 165 302 165q40 0 125 -5.5t128 -5.5q114 0 191 31q30 -2 70 -2h106q265 -2 358 -109z" />
    <glyph glyph-name="period" unicode="." horiz-adv-x="925" 
d="M492 285q7 -33 7 -65q0 -186 -164 -221q-145 20 -209 41q-113 37 -168 116q-10 34 -10 65q0 146 277 285q95 6 165 -69q18 -20 102 -152z" />
    <glyph glyph-name="slash" unicode="/" horiz-adv-x="884" 
d="M0 -249q-15 -5 -102 -230q-85 -216 -101 -204q-13 9 -13 40q0 15 4 50t4 50q0 34 -15 41q43 355 407 1124q124 262 343 675q181 342 219 439q16 13 45 95q33 96 37 103l52 110q65 126 164 135q37 -28 37 -71q0 -50 -58 -142q-187 -296 -551 -1101q-328 -722 -472 -1114z
" />
    <glyph glyph-name="zero" unicode="0" horiz-adv-x="2386" 
d="M1849 1224q-80 167 -246 254q-125 66 -331 100l-333 48q-212 -14 -397 -141q-189 -130 -274 -328l48 -67q-16 -52 -16 -101q0 -101 76 -209l141 -179q135 -135 381 -135q59 0 179 9t179 9q117 0 201 -27q180 36 326 163.5t210 306.5zM2075 1283q101 -183 129 -452
q-126 -337 -449 -560q-311 -214 -672 -236q-119 -36 -234 -36q-353 0 -773 391q-115 189 -115 494q0 152 29 321q130 402 700 651q92 10 182 10q323 0 674 -155q388 -172 529 -428z" />
    <glyph glyph-name="one" unicode="1" horiz-adv-x="2172" 
d="M1419 2056q-21 -182 -21 -400q0 -641 151 -1247l240 -50l-30 -30q38 -23 84 -23q36 0 104 18.5t98 18.5q49 0 83 -34q9 -35 9 -69q0 -191 -208 -221q-336 6 -705 -56q-383 -63 -675 -63l89 126q57 89 51 163q197 27 263 70q89 59 248 100q-5 23 -30 364q-19 258 -90 365
q-529 -529 -1188 -529q-15 22 -15 45q0 41 55 106q67 81 80 108q757 38 1098 510q-4 97 -4 151q0 365 194 458q41 9 51 68q8 56 40 56q12 0 28 -5z" />
    <glyph glyph-name="two" unicode="2" horiz-adv-x="2091" 
d="M1551 1683q86 -86 86 -262q0 -103 -31 -246q-119 -266 -407 -506l-530 -398q54 4 626 37q400 23 642 62q11 -11 136 -60q94 -37 94 -105q0 -33 -20 -78l-188 -99q-131 16 -279 16q-242 0 -749 -66t-774 -66q-95 0 -183 6q-157 69 -188 209l621 307q374 200 597 409
q287 270 393 608q-57 187 -297 187q-90 0 -244 -33q-227 -113 -298 -242q-1 -13 -1 -26q0 -27 6.5 -64.5t6.5 -49.5q0 -45 -56 -70q-86 189 -86 261q0 78 53 136q-6 24 -6 46q0 79 98 143q134 87 151 109q45 3 203 32q141 26 227 26q92 0 165 -25q21 -24 129 -83
q84 -46 103 -115z" />
    <glyph glyph-name="three" unicode="3" horiz-adv-x="2411" 
d="M1647 1742q-23 -172 -176 -323q-66 -65 -304 -237q63 -42 397 -168q261 -98 380 -244q11 -48 73 -175q50 -104 50 -178q0 -35 -8 -70q-43 -180 -203 -258q-108 -54 -337 -78q-271 -30 -352 -53q-93 16 -354 17q-231 1 -349 34q-177 52 -270 200q23 115 50 156
q46 69 145 62q-5 -18 -5 -34q0 -62 76 -106l123 -55q110 3 342 -19q246 -24 360 -24q392 0 579 215q-68 211 -296 341q-131 74 -424 162q-100 30 -212 30q-130 0 -331 -48q-276 -65 -327 -73l-102 194q139 89 481 219q339 128 491 227q17 40 80 74.5t80 74.5
q-140 54 -363 54q-171 0 -381 -31q-61 -4 -209 -31q-134 -25 -202 -25q-89 0 -149 33q0 22 -28 79t-28 82q0 41 56 56q728 81 1123 81q249 0 467 -24z" />
    <glyph glyph-name="four" unicode="4" horiz-adv-x="1929" 
d="M200 1733q6 -67 6 -158q0 -59 -4 -183.5t-4 -186.5q0 -260 60 -400q78 -185 281 -240q58 7 127 7q58 0 169 -7.5t162 -7.5q225 0 341 127q-11 85 -11 172q0 139 41.5 402t41.5 415q0 40 -2 80q18 24 56 26l74 4q52 -150 52 -295t-52 -294q52 -75 52 -155t-52 -155
q7 -37 7 -86q0 -62 -18.5 -210t-18.5 -222q0 -138 50 -221l-16 -127q-12 -76 -84 -112q-20 -6 -36 -6q-80 0 -110 128l-41 238q-33 128 -121 128q-35 0 -81 -19q-159 -31 -349 -31q-300 0 -520 71q-180 279 -198 734l-2 774q45 21 74 21q51 0 70 -87q23 -102 56 -124z" />
    <glyph glyph-name="five" unicode="5" horiz-adv-x="2051" 
d="M310 1496q-25 -20 -25 -75v0q0 -55 -25 -75l609 -20q870 -174 968 -729q46 -18 46 -65q0 -20 -10.5 -59.5t-10.5 -53.5q0 -13 5 -21q-74 -257 -539 -390q-73 -9 -153 -9q-423 0 -885 209q-43 49 -65 137l-35 153q125 50 150 50q-4 -19 -4 -35q0 -64 73 -109
q116 -71 120 -76q516 -56 578 -56q417 0 561 246q-12 129 -139 232q-200 161 -221 187l-539 170q-63 -12 -396 -38q-239 -18 -373 -82q-81 31 -81 124q0 25 31 165q173 227 290 560q102 -12 102 -133q0 -43 -14 -113q-17 -84 -18 -94zM1563 1906q5 -17 5 -34
q0 -70 -145 -166q-179 -11 -315 -11q-130 0 -320 14q-218 16 -372 19q4 36 -31.5 97t-35.5 82q0 43 87 61l768 -12q58 47 141 47q142 0 218 -97z" />
    <glyph glyph-name="six" unicode="6" horiz-adv-x="2232" 
d="M1727 575q-55 80 -187 109l-232 41q-402 -78 -699 -390q0 -114 102 -140q23 -6 193 -10q76 -2 114 -19q566 19 709 409zM1727 1713q-156 28 -326 28q-486 0 -792 -197l-270 -426q-149 -254 -149 -464q0 -99 29 -199l100 -120q43 19 46 74v95q5 31 24 51q365 394 932 394
q155 0 306 -35q21 -20 135 -62q88 -32 105 -107q8 -63 8 -121q0 -241 -148 -438q-504 -293 -953 -293q-189 0 -365 53q-155 85 -268 235q-118 158 -141 324q-13 92 -13 185q0 558 402 933q336 313 794 313q176 0 345 -53q28 -38 98 -80.5t101 -89.5z" />
    <glyph glyph-name="seven" unicode="7" horiz-adv-x="1797" 
d="M1196 2040q-33 -510 -33 -711q0 -267 33 -501h864q13 -27 13 -52q0 -47 -55 -91l-90 -63q-239 -24 -713 -66q-13 -35 -13 -90q0 -52 16.5 -177.5t16.5 -185.5q0 -217 -180 -232q-78 100 -64 319q16 269 -2 338q-198 25 -492 26l-494 2q-82 47 -65 179l65 47q68 -6 144 -6
q116 0 336.5 20t326.5 20q70 0 132 -6q51 101 51 220q0 80 -23 165q-48 44 -48 115q0 33 14 100.5t14 98.5q0 29 -8 52q-16 46 -47 46q-19 0 -58 -23t-54 -23q-26 5 -69 5q-34 0 -124 -5.5t-139 -5.5q-221 0 -288 100q3 11 3 28q0 16 -4.5 56t-4.5 59q0 82 72 82
q240 -120 487 -120q86 0 132 26q102 9 143 146q40 133 107 133q39 0 98 -25z" />
    <glyph glyph-name="eight" unicode="8" horiz-adv-x="2226" 
d="M1507 1635q-129 97 -326 97q-68 0 -208 -14.5t-211 -14.5q-33 0 -64 2v-70q-6 -20 -70 -20q44 -162 270 -369q23 -4 47 -4q131 0 338 151q230 167 344 192v50h-120zM1477 327l-282 306q-177 179 -297 223q-172 -153 -172 -256q0 -16 2 -33q5 -94 71 -148
q42 -35 146.5 -74t142.5 -68q187 -31 232 -31q132 0 157 81zM1797 1855q127 -95 127 -232q0 -29 -7 -58q-115 -146 -386 -265q-285 -126 -393 -244q63 -107 230 -283q182 -192 242 -279q112 -162 112 -316q0 -35 -5 -70q-144 -109 -340 -109q-277 0 -729 248q-4 75 -75 159
q-68 81 -68 143q0 18 4 38q-30 33 -30 74q0 45 44 125q49 89 56 120q121 56 121 129q0 46 -59 127q-69 97 -82 134q-84 42 -127 162q-71 203 -73 207q-327 16 -609 -249q-21 29 -21 76q0 100 71 213q362 274 998 274q126 0 559 -24z" />
    <glyph glyph-name="nine" unicode="9" horiz-adv-x="2252" 
d="M1601 1673q-213 158 -531 158q-85 0 -295 -16q-197 -15 -312 -12q-187 -165 -233 -219q-110 -126 -136 -271q9 -93 81 -151q42 -35 153 -83t155 -85q549 109 799 100q13 92 150 70q196 127 196 359q0 77 -27 150zM1871 1553q73 -23 73 -82q0 -23 -16.5 -82.5t-16.5 -91.5
q0 -29 10 -53l-50 -50q-3 -60 -34 -458q-21 -276 -21 -459q0 -94 5 -182q20 -33 20 -93q0 -125 -90 -166q-182 20 -219 119l19 799q-361 -61 -636 -61q-762 0 -1041 451v439q218 251 304 322q199 165 411 165q46 0 94 -8q87 -22 457 -50q309 -23 461 -96q221 -107 270 -363z
" />
    <glyph glyph-name="colon" unicode=":" horiz-adv-x="871" 
d="M520 859q6 -22 6 -44q0 -101 -117 -159q-276 0 -368 92q-10 35 -10 66q0 83 82 153l149 112q22 6 42 6q76 0 132 -82zM483 196q10 -27 10 -51q0 -58 -57 -94q-49 -30 -110 -30q-27 9 -59 9q-36 0 -103 -16t-97 -16q-74 0 -118 69q-29 45 -29 85q0 65 85 126l147 93
q185 0 331 -175z" />
    <glyph glyph-name="semicolon" unicode=";" horiz-adv-x="1086" 
d="M696 662q8 -32 8 -64q0 -164 -137 -175q-311 83 -350 239q-6 25 -6 45q0 71 95 100q130 39 150 58q12 1 24 1q75 0 139 -69q56 -60 77 -135zM585 -1q13 -35 13 -74q0 -50 -31 -149t-31 -155q0 -42 12 -82q-257 -392 -752 -392q-88 0 -177 15q-70 11 -70 81q0 14 5 29
q94 43 319 66t322 68q158 74 215 262q30 55 30 115q0 73 -58 198t-58 179q0 42 22 79q82 0 147 -85z" />
    <glyph glyph-name="less" unicode="&#x3c;" horiz-adv-x="1832" 
d="M1272 1665q-141 -214 -455 -436l-531 -366l615 -342q372 -209 601 -404q7 -18 7 -35q0 -84 -87 -84q-19 0 -40 8q-229 87 -313 203q-21 9 -528 273q-315 164 -541 224q-3 11 -31 79q-19 47 -19 81q0 17 4 34q399 248 1189 903q49 -7 89 -49t40 -89z" />
    <glyph glyph-name="equal" unicode="=" horiz-adv-x="1407" 
d="M948 1123q21 -32 21 -89q0 -140 -113 -132q-94 19 -206 19q-76 0 -229.5 -12.5t-233.5 -12.5q-64 0 -123 6q-66 67 -66 147q0 41 20 74q45 -4 93 -4q100 0 285 23.5t277 23.5q148 0 275 -43zM1077 368q19 -173 -83 -193q-44 7 -95 7q-95 0 -296 -37t-294 -37
q-203 0 -309 131q-8 24 -8 42q0 44 73 61q88 20 110 54q90 -3 278 17q200 22 294 22q196 0 330 -67z" />
    <glyph glyph-name="greater" unicode="&#x3e;" horiz-adv-x="1779" 
d="M1057 1231q166 -118 240 -198q119 -129 138 -278q-614 -147 -1281 -747q-6 1 -15 1q-14 0 -45.5 -5t-47.5 -5q-59 0 -76 58q-4 135 97 230q34 32 217 148q144 91 200 184q64 47 312 147q194 78 261 183q-146 70 -287 194q-42 38 -257 253h-97q-6 38 -89 142
q-77 98 -77 160q0 55 50 105q171 -47 386 -268q235 -243 371 -304z" />
    <glyph glyph-name="question" unicode="?" horiz-adv-x="1407" 
d="M1155 1834q26 -66 26 -136q0 -158 -136 -343q-61 -83 -214 -151q-190 -84 -231 -115q-108 -81 -108 -222q-5 -53 -5 -114q0 -94 19.5 -286t19.5 -286q0 -61 -6 -115q-41 -70 -107 -70q-19 0 -142 34q-5 71 -40 307q-28 195 -28 311q0 275 142 459q300 163 346 194
q193 134 271 312q7 125 -62.5 230.5t-186.5 147.5q-249 32 -336 32q-156 0 -281 -51q-88 -66 -88 -171q0 -25 6 -50q-15 -7 -34 -7q-46 0 -84 33q-42 36 -39 85q10 146 117 206q61 34 229 60q161 24 225 65q79 -35 269 -67q182 -30 266 -73q133 -68 192 -219zM520 -440
q17 -32 17 -59q0 -61 -103 -101l-163 -61q-1 1 -163 31q-100 19 -122 107q-2 12 -2 24q0 82 73 156q70 71 150 78q36 -18 129.5 -22.5t127.5 -19.5q58 -25 58 -100q0 -15 -2 -33z" />
    <glyph glyph-name="at" unicode="@" horiz-adv-x="2746" 
d="M1418 1113l-65 479q-68 23 -142 23q-141 0 -327 -87q-243 -156 -267 -378q12 -130 151 -176l254 -45q154 20 222 44q119 43 174 140zM2348 1666q9 -58 74 -234q55 -151 55 -239q0 -125 -93 -218q-299 -299 -516 -299q-81 0 -165 32q-60 33 -121 98q-88 94 -100 105
q-92 -122 -275 -166l-323 -55q-116 23 -222 131l-174 200q-5 62 -5 117q0 322 180 482q16 5 278 109q175 70 292 70q125 0 231 -69q117 -76 131 -342q16 -330 43 -391q74 -166 351 -86l193 99q109 68 138 168q6 44 6 85q0 194 -146 338q-109 107 -331 211l-348 158
q-551 19 -838 -83q-518 -346 -599 -1068q178 -473 442 -571q340 -91 656 -91q542 0 891 266q52 -20 52 -76q0 -40 -24 -81q-558 -267 -1059 -267q-166 0 -332 28q-190 -11 -367 143l-277 281q-123 172 -123 432q0 204 77 470q216 369 407 551q282 268 615 268
q988 0 1326 -506z" />
    <glyph glyph-name="A" unicode="A" horiz-adv-x="1902" 
d="M1373 725q-180 799 -749 929q-216 -47 -380 -210q-103 -350 -103 -511q0 -146 54 -278q130 0 388 22t385 22q211 0 375 -44q0 60 30 70zM1203 1564q252 -361 459 -1079q-66 -57 -66 -136q0 -57 44 -160t44 -141q0 -84 -141 -112q-72 66 -90 200l-30 230
q-100 -28 -220 -28q-103 0 -314.5 30t-322.5 30q-135 0 -252 -32q-5 -20 -5 -41q0 -47 42.5 -142.5t42.5 -147.5t-30 -99q-24 -4 -47 -4q-113 0 -176 112q-1 3 -91 235q-58 150 -145 206q14 85 26 465q10 303 71 466q87 234 312 337q117 54 243 54q152 0 338 -82
q51 -23 308 -161z" />
    <glyph glyph-name="B" unicode="B" horiz-adv-x="2532" 
d="M1459 1519q-133 145 -536 145q-59 0 -113 -5q-231 7 -231 -235q0 -49 10.5 -150t10.5 -144h479l242 141q145 95 145 197q0 25 -7 51zM2108 481q-64 184 -300 291l-419 148q-121 -52 -360 -103q-251 -54 -359 -96q3 -41 -1 -226q-4 -139 21 -224q165 -26 342 -26
q405 0 936 146zM1558 1659q79 -134 79 -276q0 -164 -109 -273l-19 -30q51 -42 121 -46q66 0 131 -1q47 -4 87 -23q209 -160 273 -220q154 -143 206 -279q-12 -247 -319 -410q-392 -65 -955 -85q-862 -30 -932 -34q-29 -2 -88 -18q-54 -15 -82 -15q-58 0 -100 53
q22 128 125 170q63 25 217.5 25.5t216.5 23.5q48 48 48 104q0 37 -33 118.5t-33 128.5q0 40 18 79l-44 408q-40 225 -156 341q-28 49 -28 100q0 68 57 157l91 142q65 -7 147 -7q81 0 255.5 10t262.5 10q376 0 563 -153z" />
    <glyph glyph-name="C" unicode="C" horiz-adv-x="2315" 
d="M1982 1417q2 -17 2 -34q0 -110 -82 -205q-67 0 -85 104q-23 133 -55 165q-45 90 -168 106q-150 20 -191 54l-433 -90q-270 -61 -423 -160q-205 -133 -273 -369q-29 -65 -29 -125q0 -127 144 -258l225 -196q240 -69 510 -69q353 0 758 119q90 -65 90 -148q0 -34 -20 -62
q-233 -226 -665 -226q-174 0 -583 56q-73 32 -217 191q-122 133 -233 139q-243 159 -243 448q0 88 24 181q63 246 266 406q153 121 429 217l453 146q319 -43 456 -94q244 -91 343 -296z" />
    <glyph glyph-name="D" unicode="D" horiz-adv-x="2959" 
d="M1991 1400q261 -116 575 -724q21 -41 21 -84q0 -52 -40 -139q-44 -97 -51 -137q-179 -128 -270 -175q-157 -81 -298 -81q-65 0 -131 17q-95 -48 -225 -48q-27 0 -83 2t-87 2q-111 0 -204 -26q-183 -53 -409 -53q-296 0 -689 93q-7 17 -34 51q-21 27 -21 46q0 11 5 22
q37 50 99 50q35 0 115.5 -23.5t119.5 -23.5q93 0 145 97q49 200 49 464q0 162 -24.5 473.5t-24.5 450.5q-248 -67 -336 -118q-173 -101 -193 -291q-15 -6 -26 -6q-29 0 -41 43q-15 55 -23 63q0 281 210 379q78 12 331 76q201 51 318 51q170 0 300 -90q169 -27 473 -120
q276 -85 305 -107q68 -31 144 -134zM1056 1639q-19 -10 -40 -10q-28 0 -80 27.5t-80 27.5q-34 0 -67 -30q-4 -215 32 -571q39 -373 39 -548q0 -164 -21 -319q101 -23 250 -23q55 0 167 4t168 4q74 0 134 -5q77 63 318 119q290 67 372 103q180 77 180 213q0 135 -178 357
l-283 347q-339 106 -911 304z" />
    <glyph glyph-name="E" unicode="E" horiz-adv-x="2026" 
d="M1478 1751q-17 -127 -183 -127q-26 0 -84 3t-87 3q-94 0 -146 -29q-64 -6 -256 -44q-161 -32 -253 -32q-48 0 -90 6q-51 -74 -51 -236q0 -36 3 -110.5t3 -110.5q0 -52 -5 -92q0 -24 28 -53q42 -46 42 -47q25 4 212 44q140 30 226 30q158 0 241 -94q9 -21 9 -41
q0 -46 -48 -89l-81 -59q-78 47 -173 47q-91 0 -220 -48l-206 -79q-32 -180 -32 -216q0 -115 72 -164q53 8 114 8q71 0 208 -14.5t202 -14.5q166 0 275 71q40 -21 100 -21q52 0 166 23.5t163 23.5q160 0 170 -195q-12 -103 -147 -103q-27 0 -77 4.5t-70 4.5q-29 0 -45 -6
l-556 -60q-326 -31 -568 -31q-48 0 -94 1q-197 264 -197 812q0 73 3 219.5t3 217.5q0 298 -49 478q-12 44 -12 74q0 80 129 90q140 11 162 96q130 -25 309 -25q62 0 183.5 4t179.5 4q343 0 527 -123z" />
    <glyph glyph-name="F" unicode="F" horiz-adv-x="1887" 
d="M1388 1772q-30 -94 -116 -113q-6 -1 -170 -6q-72 -3 -123 -21q-85 -77 -270 -77q-35 0 -102.5 3t-97.5 3q-204 0 -204 -147q0 -67 34 -171q-11 -149 141 -149q22 0 71.5 3.5t73.5 3.5q77 0 114 -28q80 3 259 29q165 23 255 23q100 0 185 -22q88 -77 88 -178
q0 -81 -88 -92q-57 -7 -127 -7q-80 0 -253.5 14t-260.5 14q-270 0 -418 -110q-17 -61 -17 -130q0 -84 35 -240.5t35 -225.5q0 -151 -122 -243q-13 -2 -24 -2q-64 0 -107 68l-59 124l-120 1557l120 120q422 21 608 35q339 25 570 65z" />
    <glyph glyph-name="G" unicode="G" horiz-adv-x="2785" 
d="M1887 1781q-74 5 -148 5q-473 0 -861 -178q-422 -194 -668 -566q-23 -166 -23 -268q0 -274 143 -401q450 -229 1020 -229q454 0 847 149q90 71 90 187q0 123 -90 223q-143 120 -355 120q-95 0 -294.5 -32.5t-298.5 -32.5q-81 0 -150 15q-95 81 -95 151q0 36 25 68
q185 149 519 149q67 0 203 -7t203 -7t123 5q450 -325 450 -761q0 -59 -11 -118q-491 -366 -1141 -366q-311 0 -586 97q-219 -6 -428 157l-361 322q-52 121 -52 258q0 204 172 611l463 356q264 186 516 243q90 -29 221 -29q41 0 120 3.5t116 3.5q232 0 331 -128z" />
    <glyph glyph-name="H" unicode="H" horiz-adv-x="2102" 
d="M310 848q586 -22 938 100q-95 143 -111 383q-25 388 -29 406q16 48 71 48q41 0 69 -28q75 -130 120 -429.5t120 -429.5q49 24 95 24q141 0 194 -174q-17 -64 -128 -82q-158 -26 -181 -38q21 -341 140 -519q-24 -71 -100 -100q-20 -7 -36 -7q-45 0 -72 54q-3 7 -32 93
q-1 19 -1 43q0 21 1 68t1 73q0 243 -141 295q-133 -41 -328 -45q-166 -1 -332 -1q-115 -5 -209 -23q-44 -45 -44 -154q0 -24 2.5 -71t2.5 -69q0 -161 -130 -156q-62 140 -85 412q-28 322 -55 427q2 26 2 54q0 108 -40 313.5t-40 304.5q0 101 28 187l170 -20z" />
    <glyph glyph-name="I" unicode="I" horiz-adv-x="843" 
d="M260 1637q28 -584 49 -826q42 -487 121 -782q-30 -47 -109 -48q-127 -1 -131 -2q-120 211 -136 674q-20 566 -54 704q8 25 8 56q0 36 -14.5 116t-14.5 120q0 101 71 158q75 0 137 -44q69 -49 73 -126z" />
    <glyph glyph-name="J" unicode="J" horiz-adv-x="2262" 
d="M1654 2006q-78 -177 -78 -367q0 -232 168.5 -660.5t168.5 -647.5q0 -215 -109 -412q-233 -122 -556 -122q-179 0 -792 102q-9 36 -39 60q-22 17 -64 33q-58 23 -67 27l-165 194q-89 109 -89 211q0 45 15 94q24 50 86 50q37 0 63 -20q0 -195 200 -326l350 -183
q154 -24 299 -24q276 0 589 94q120 92 120 230q0 84 -55 239q-59 166 -65 230q-219 381 -219 859q-95 98 -276 98q-61 0 -181.5 -13.5t-174.5 -13.5q-225 0 -277 198q140 72 310 72q85 0 266.5 -26t282.5 -26q19 54 74.5 100.5t109.5 46.5q75 0 105 -97z" />
    <glyph glyph-name="K" unicode="K" horiz-adv-x="2369" 
d="M240 1807l-30 -310q30 -18 60 -18q46 0 134.5 70t144.5 68q166 -6 468 79q312 88 456 88q187 0 344 -97q-297 -175 -498 -175q-37 0 -71 5q-95 -66 -396 -115q-263 -42 -373 -174q288 -144 708 -439l700 -490q107 -27 200 -120q-41 -123 -173 -123q-50 0 -97 23
q-76 88 -269 215q-224 147 -300 215l-448 255q-267 148 -470 204q-53 -187 -53 -447t53 -462q-55 -82 -135 -82q-12 0 -25 2q-89 214 -122 513q-20 185 -26 550q-6 376 -22 545q-28 284 90 320q139 -24 150 -100z" />
    <glyph glyph-name="L" unicode="L" horiz-adv-x="1834" 
d="M260 1730q-8 -86 -8 -177q0 -178 47 -536q45 -342 40 -535q32 -105 210 -150q103 0 347.5 41.5t364.5 41.5q300 0 436 -203q-10 -86 -128 -110q-142 -27 -181 -79l-70 49l-1128 -69q-94 31 -94 161q0 55 24 98l50 50q-10 76 -72 688q-42 415 -98 680q-5 23 -5 45
q0 66 42 109q38 39 91 39q113 0 132 -143z" />
    <glyph glyph-name="M" unicode="M" horiz-adv-x="2564" 
d="M2216 370q-3 -60 19 -184q24 -131 24 -184q0 -113 -73 -162q-115 135 -143 458q-27 312 -166 451q-154 -238 -410 -310q-71 -10 -139 -10q-353 0 -530 270q-12 44 -35 44q-10 0 -32 -10t-34 -10q-22 0 -38 26q-105 18 -179 129l-111 181l-70 -70q22 -133 22 -298
q0 -152 -23 -413q-26 -289 -29 -388q-18 -24 -62 -26l-78 -4q-98 104 -98 270q0 73 25 226t25 228q0 23 -2 45q29 143 28 379q-1 423 -2 384q6 230 44 365q120 5 170 -75q30 -48 50 -177.5t50 -176.5q118 -244 313 -421q211 -190 456 -248q423 22 499 260q23 117 23 233
q0 302 -143 506l100 149q173 -151 262 -428q26 -79 118 -515q68 -319 169 -494z" />
    <glyph glyph-name="N" unicode="N" horiz-adv-x="2401" 
d="M699 1228q72 -86 282 -423q254 -406 319 -502q187 -63 298 -63q110 0 199 50q190 104 190 288q0 106 -77 306q-84 216 -93 294q-18 44 -127 156q-91 94 -91 164q0 43 29 90l119 -30q412 -595 412 -971q0 -240 -142 -437q-130 -104 -320 -104q-112 0 -359 54l-210 260
l33 -10l-272 329q-64 191 -251 378l-348 311q-67 -156 -67 -324q0 -81 17 -155l169 -739l-99 -70q-156 142 -214 389q-35 150 -49 473q-14 328 -47 476l79 167q62 109 129 109q48 0 102 -56q82 -55 194 -224q99 -149 195 -186z" />
    <glyph glyph-name="O" unicode="O" horiz-adv-x="2113" 
d="M1656 1049q-294 515 -768 529l-256 -69q-156 -43 -174 -151q-278 -132 -278 -487q0 -55 9 -112q18 -120 153 -206l236 -123q320 -52 490 -52q367 0 588 191q54 100 54 244q0 142 -54 236zM1706 1238q164 -333 164 -581q0 -188 -94 -327q-556 -259 -942 -259
q-320 0 -546 169l-263 293q-143 178 -146 346q-4 288 185 536q177 232 444 333q156 59 320 59q275 0 515 -157q237 -155 363 -412z" />
    <glyph glyph-name="P" unicode="P" horiz-adv-x="2367" 
d="M1146 1880q23 5 44 5q72 0 174 -84q106 -86 172 -91q201 -192 267 -277q133 -175 133 -341q0 -94 -41 -191q-194 -256 -558 -363l-640 -146q-45 -42 -45 -117q0 -61 43.5 -205.5t43.5 -207.5q0 -64 -30 -105q-16 -3 -31 -3q-73 0 -159 103q3 26 3 59q0 152 -54 306
q-62 177 -160 220q-20 -20 -140 -20q-76 51 -76 119q0 19 6 41q39 54 109 54q18 0 51.5 -3.5t48.5 -3.5q81 0 100 103q-15 150 -84.5 429.5t-84.5 428.5q48 73 111 73q31 0 58 -23q200 -579 190 -908q117 -65 260 -65q129 0 320 58l309 97q78 20 158 126q86 115 151 143
q-13 372 -479 669q-200 20 -293 44q-156 39 -256 126q-515 -86 -819 -150q-50 -10 -79 -92q-27 -76 -69 -76q-18 0 -42 8q-15 41 -15 79q0 111 122 199q98 70 233 102q59 -4 124 -4q93 0 270 11t265 11q136 0 249 -18z" />
    <glyph glyph-name="Q" unicode="Q" horiz-adv-x="3252" 
d="M1997 1321l-251 145q-149 84 -258 114q-71 59 -152 59q-59 0 -173 -43.5t-173 -43.5q-80 0 -151 58q-60 -124 -262 -215q-232 -106 -307 -194q-32 -49 -32 -100q0 -29 13.5 -83.5t13.5 -83.5q0 -47 -25 -92h-140q18 -9 23 -33q3 -16 1 -45q-4 -39 -4 -42l148 -290
q94 -157 261 -170q136 -75 295 -75q73 0 358 52q223 41 376 3q-7 156 -169 291l-281 209l-50 -70q-82 0 -119 50q-3 28 -3 53q0 165 102 256q220 0 434 -231q81 -88 305 -418l229 90q132 65 181 180q33 79 33 158q0 116 -82 264zM2187 1371q216 -312 216 -630
q0 -138 -47 -259q-35 -58 -92 -113q-90 -87 -107 -107q106 -79 218 -79q135 0 320 128q262 182 281 191q96 -38 96 -171q0 -61 -27 -108q-247 -161 -298 -190q-171 -98 -321 -130q-93 10 -313 84q-201 68 -313 68q-132 0 -242 -72q-31 -10 -65 -10q-36 0 -95 15t-82 15
q-73 0 -118 -100l-529 45q-296 47 -469 195q-284 394 -284 789q0 201 84 369q53 43 148.5 168t153.5 174q97 83 207 87q58 89 232 106q187 18 248 84q805 17 1198 -549z" />
    <glyph glyph-name="R" unicode="R" horiz-adv-x="2233" 
d="M1587 1264l-29 140q-242 252 -323 317q-211 170 -402 170q-103 0 -204 -48q-249 -115 -251 -117q-126 -81 -139 -222q119 -57 160 -185q22 -66 34 -246q10 -163 46 -238q125 -125 291 -125q34 0 69 5q416 164 468 192q261 145 280 357zM1488 1764q18 -44 189 -293
q127 -184 127 -338q0 -77 -27 -158q-149 -211 -399 -336q-183 -91 -490 -164q103 -168 308 -297q197 -124 411 -162q32 90 159.5 110t150.5 80h170q14 -44 14 -81q0 -104 -131 -162l-223 -87l-443 35q-253 44 -316 275q-105 5 -258 112q-162 114 -251 128q-38 -57 -38 -135
q0 -62 31.5 -179.5t31.5 -163.5q0 -115 -145 -142q-128 128 -186 371l-73 438q-77 66 -77 217q0 19 1.5 58t1.5 58q0 95 -26 147q-30 89 -30 189q0 246 200 599q258 233 590 233q427 0 728 -352z" />
    <glyph glyph-name="S" unicode="S" horiz-adv-x="2128" 
d="M1198 1738q122 -74 122 -247q0 -22 -2 -43q-216 248 -673 248q-82 0 -166 -8q-285 -82 -359 -240q-4 -23 -4 -44q0 -116 143 -185q188 -89 220 -130l443 -95q268 -60 423 -150q207 -121 303 -335q92 -143 92 -277q0 -141 -112 -222q-176 -76 -411 -76q-326 0 -578 126
q-70 27 -239.5 49t-240.5 49q-119 44 -159 142q19 69 58 69q18 0 66 -24.5t74 -24.5q34 0 62 30q55 -99 156 -99q30 0 93 10.5t95 10.5q94 0 155 -72q45 19 99 19q68 0 198 -43.5t184 -43.5q70 0 118 48q160 0 220 90q-109 312 -429 454q-106 47 -624 173q-394 95 -575 261
q-71 89 -71 212q0 146 91 298q213 238 632 238q189 0 397 -49z" />
    <glyph glyph-name="T" unicode="T" horiz-adv-x="1947" 
d="M2008 1744q-324 -70 -535 -70q-117 0 -204 21l-169 -50q-5 -263 82 -728q90 -477 90 -709q0 -46 -3 -91q-1 -27 15.5 -83.5t16.5 -79.5q0 -61 -81 -77q-174 87 -174 386q0 26 1 78t1 78q0 178 -48 267l-170 919q-91 37 -217 37q-98 0 -308 -32.5t-311 -32.5
q-262 0 -402 167l70 70q275 0 853.5 59t864.5 59q308 0 558 -48q91 -17 70 -140z" />
    <glyph glyph-name="U" unicode="U" horiz-adv-x="2235" 
d="M1318 1900q253 -384 337 -554q162 -328 162 -613q0 -162 -50 -320q-94 -300 -289 -410q-184 -70 -403 -70q-417 0 -676 220q-519 573 -519 1137q0 259 120 491q16 5 32 5q53 0 128 -125q-92 -197 -92 -416q0 -496 411 -932q205 -127 546 -127q167 0 293 37
q291 226 280 599q-8 243 -145 527l-255 481q-5 15 -5 27q0 43 125 43z" />
    <glyph glyph-name="V" unicode="V" horiz-adv-x="2529" 
d="M2205 1707v-70q-495 -359 -889 -1129q-88 -254 -107 -286q-85 -147 -245 -147q-27 0 -57 4q-256 191 -540 544q-466 579 -488 604q1 11 1 21q0 82 -94.5 208.5t-94.5 195.5q0 37 18 75h170q293 -555 455 -781q305 -423 673 -607q113 380 424 790q201 264 604 677
q170 0 170 -99z" />
    <glyph glyph-name="W" unicode="W" horiz-adv-x="3734" 
d="M3265 1929q-110 -167 -217 -577q-103 -395 -233 -571q-59 -344 -219 -649q-79 98 -73 234l-144 113q-92 70 -154 62q-183 130 -253 171q-144 86 -276 119q-127 -29 -201 -237q-71 -202 -208 -222q-26 -16 -26 -61q0 -15 4 -47t4 -47q0 -60 -59 -60q-18 0 -43 5l-808 743
q-434 439 -560 885q37 50 120 50q85 -260 308 -524q148 -176 448 -447q334 -301 442 -417q46 -18 77 -18q67 0 85 119q19 133 78 158q156 114 156 257q0 27 -7 53q-516 330 -599 649q20 51 83 51q55 0 107 -31q64 -153 237 -287l312 -212l549 718q89 0 112 -5q58 -13 58 -64
v-120l-499 -669q67 -115 324 -244q252 -126 325 -266q13 -10 37 -16q8 29 83 240q51 145 61 236l192 512q116 293 237 496q140 0 140 -80z" />
    <glyph glyph-name="X" unicode="X" horiz-adv-x="2367" 
d="M1715 1666q-53 -117 -284 -378l-352 -395l7 -86q116 -83 386.5 -217.5t392.5 -221.5q202 -144 299 -330q-43 -27 -96 -27q-96 0 -163 77q-59 113 -254 192q-300 122 -325 137l-247 184q-157 112 -273 106q-157 -213 -579 -529q-51 51 -51 100q0 65 115 161
q119 101 126 148q25 54 145 88q104 29 104 96q0 24 -9 56q-121 135 -460 317q-313 169 -429 332q35 124 100 124q53 0 173 -110q129 -118 186 -134q91 -25 336 -195q214 -149 354 -149q22 0 44 3q366 691 639 692q62 0 115 -41z" />
    <glyph glyph-name="Y" unicode="Y" horiz-adv-x="2556" 
d="M2177 2161q-27 -111 -235 -666q-152 -407 -152 -701q0 -70 7 -141q-115 -204 -181 -645q-69 -465 -158 -653q-140 0 -140 70l190 1078q-78 73 -187 73q-48 0 -173 -24q-118 -22 -189 -19q-311 45 -489 292q-106 148 -235 522.5t-235 523.5l20 61q14 38 50 39
q104 4 150 -112q60 -154 90 -177q98 -692 549 -909q103 -50 257 -50q35 0 104 3t102 3q111 0 186 -26l249 789q151 469 280 789q93 -12 140 -120z" />
    <glyph glyph-name="Z" unicode="Z" horiz-adv-x="2395" 
d="M1098 1960q190 -252 190 -504q0 -124 -50 -235q-96 -216 -410 -456q-370 -282 -469 -412h1528q102 -68 102 -196q0 -21 -2 -44q-58 -72 -149 -72q-29 0 -91 9t-96 9q-51 0 -93 -16q-44 3 -94 3q-111 0 -365.5 -21.5t-383.5 -21.5q-463 0 -675 230v100q59 39 253 271
q144 171 306 188q304 277 335 311q169 184 214 378q-61 159 -76 191q-48 104 -113 169q-220 -80 -490 -110q-80 -9 -469 -30q-30 12 -30 52v68q450 143 1128 139z" />
    <glyph glyph-name="backslash" unicode="\" horiz-adv-x="884" 
d="M916 -249q15 -5 102 -230q85 -216 101 -204q13 9 13 40q0 15 -4 50t-4 50q0 34 15 41q-43 355 -407 1124q-124 262 -343 675q-181 342 -219 439q-16 13 -45 95q-33 96 -37 103l-52 110q-65 126 -164 135q-37 -28 -37 -71q0 -50 58 -142q187 -296 551 -1101
q328 -722 472 -1114z" />
    <glyph glyph-name="underscore" unicode="_" 
d="M1280 -167q7 -19 7 -37q0 -78 -102 -78q-18 0 -34 5q-50 3 -103 3q-121 0 -335 -24t-314 -24q-219 0 -399 82q77 165 302 165q40 0 125 -5.5t128 -5.5q114 0 191 30q30 -1 70 -2h106q265 -2 358 -109z" />
    <glyph glyph-name="grave" unicode="`" horiz-adv-x="1046" 
d="M865 1941q6 -16 6 -31q0 -68 -98 -107q-111 66 -393 185q-257 109 -380 192q-13 28 -13 49q0 83 169 62q20 -10 362 -158q216 -93 347 -192z" />
    <glyph glyph-name="a" unicode="a" horiz-adv-x="2282" 
d="M1150 707q-164 171 -441 171q-350 0 -507 -253q-32 -81 -32 -132q0 -83 78 -135q240 -124 594 -124q279 0 621 78zM1436 1333q159 -143 246 -365q52 -133 111.5 -416t111.5 -415q-16 4 -32 4q-55 0 -126 -71t-105 -71q-45 0 -96 73q-104 -2 -382 -28q-264 -25 -410 -25
q-549 0 -754 320q-11 50 -11 97q0 162 186 410q104 110 269 162q99 31 311 58q433 -33 856 -616q3 37 3 74q0 251 -125 474q-128 226 -357 372q-85 23 -178 23q-210 0 -420 -106q-2 15 -2 29q0 87 69 156q63 62 154 82q64 7 124 7q351 0 557 -228z" />
    <glyph glyph-name="b" unicode="b" horiz-adv-x="1907" 
d="M1326 524q-548 564 -1142 552q-26 -205 -26 -385q0 -236 45 -434q237 -26 411 -26q226 0 491 44l141 104q85 62 80 145zM75 1935q-9 -404 115 -564q83 -106 276 -134q213 -31 270 -78q668 -267 792 -681q7 -120 -64 -227q-67 -100 -175 -151l-435 -65q-265 -38 -445 -38
q-232 0 -409 57q-92 245 -92 625q0 92 6 277t6 277q0 79 -3 147q-1 24 -31 232q-28 192 -28 301q0 143 42 196q73 0 122 -53q46 -49 53 -121z" />
    <glyph glyph-name="c" unicode="c" horiz-adv-x="1831" 
d="M1519 913q21 -30 21 -61q0 -57 -67 -124q5 27 5 51q0 123 -136 207q-52 32 -237 101q-104 23 -206 23q-275 -1 -485 -161l-160 -214q-88 -133 -88 -238q0 -61 27 -118q268 -171 633 -171q269 0 693 106q70 -70 70 -153q0 -24 -6 -49q-430 -113 -808 -113q-370 0 -628 113
q-175 142 -175 372q0 83 28 162q95 264 368 506q227 88 480 88q503 0 671 -327z" />
    <glyph glyph-name="d" unicode="d" horiz-adv-x="2335" 
d="M1574 487q-104 229 -340 358q-211 115 -479 130q-370 -222 -506 -460q0 1 -4 -39q-3 -31 0 -48q5 -23 22 -23q325 -140 783 -140q266 0 543 47zM1703 1924q15 -129 67 -870q38 -547 108 -870q-171 -107 -466 -144l-528 -41l-348 48q-206 34 -323 101q-154 88 -213 257
q52 238 268 464q189 197 441 327q357 -57 435 -80q240 -71 366 -233h37q28 103 28 251q0 81 -11.5 247t-11.5 245q0 219 68 344z" />
    <glyph glyph-name="e" unicode="e" horiz-adv-x="2174" 
d="M1519 952q-131 271 -628 271q-56 0 -164 -4q-43 -31 -155 -65t-153 -63q-69 -49 -69 -139q103 -248 418 -248q53 0 166.5 7t171.5 7q60 0 109 -5q20 14 193 51q126 26 126 113q0 32 -15 75zM1565 1192q159 -231 159 -366q0 -85 -49 -159q-348 -202 -774 -202
q-269 0 -487 91l-239 240q-73 -39 -73 -131q0 -71 45 -173q128 -161 361 -222q156 -40 447 -47q330 -8 435 -26l292 33q172 20 279 60q70 -47 70 -118q0 -19 -6 -39q-356 -134 -803 -134q-634 0 -1139 244q-166 107 -166 315q0 127 83 376q127 212 321 339q201 133 425 140
q508 15 819 -221z" />
    <glyph glyph-name="f" unicode="f" horiz-adv-x="1544" 
d="M1380 2317q134 -153 171 -208q86 -126 86 -239q0 -53 -18 -106q-44 -129 -193 -129q89 179 89 252q0 30 -7 61q-224 337 -441 396q-62 24 -127 24q-85 0 -204 -45q-184 -68 -194 -71q-337 -257 -337 -765q0 -217 70 -422q122 -72 301 -72q76 0 231.5 17t230.5 17
q66 0 121 -9q68 -68 68 -127q0 -14 -4 -29q-83 -9 -339 -59q-211 -41 -336 -41q-61 0 -117 8q27 -88 191 -375q134 -234 134 -379q0 -87 -39 -167q-118 45 -200 216l-132 291l-155 336q-107 196 -279 196q-34 0 -72 -8q-71 36 -71 117q0 38 25 68q41 20 119 17.5t120 18.5
q-45 260 -45 447q0 521 358 796q200 153 485 153q308 0 510 -180z" />
    <glyph glyph-name="g" unicode="g" horiz-adv-x="2101" 
d="M1483 787q-87 194 -311 308q-211 107 -463 107q-219 -42 -293 -71q-159 -60 -232 -187q-52 -72 -52 -150q0 -52 35.5 -162t35.5 -176q293 -162 652 -162q274 0 517 97q4 22 4 44q0 38 -17 98q-21 69 -24 98q0 53 50 102q47 47 98 54zM1529 1073q159 -193 159 -568
q0 -46 -2 -139.5t-2 -140.5q0 -303 93 -478q7 -50 7 -101q0 -363 -255 -470q-269 -28 -527 -28q-518 0 -882 111q-46 46 -46 138q60 -28 147 -28q47 0 146.5 11.5t149.5 11.5q136 0 220 -68q108 45 333 45h49.5h50.5q206 0 307 37q149 54 208 212q-60 287 -202 507l-378 -53
q-228 -32 -379 -32q-399 0 -652 213q-178 125 -178 378q0 85 22 175q5 159 149 294l274 212q184 74 380 74q422 0 808 -313z" />
    <glyph glyph-name="h" unicode="h" horiz-adv-x="2214" 
d="M526 1551q-10 -29 -10 -63q0 -43 23.5 -133.5t23.5 -135.5q78 0 255.5 43t268.5 43q147 0 249 -86q315 -148 486 -438q164 -278 164 -628q0 -65 -5 -131q-9 -16 -26 -21q-12 -3 -33 0q-29 3 -34 3q-39 99 -66 290q-30 208 -57 292q-50 156 -162 256q-294 261 -617 261
q-153 0 -285 -68l-92 -83q-6 -55 -6 -121q0 -90 14.5 -275.5t14.5 -270.5q0 -130 -23 -216q-26 -38 -67 -38q-86 0 -154 102q-57 -32 -126 -83q-38 -28 -62 -28q-25 0 -158 47q-141 49 -141 243q0 28 3 60q32 13 55 13q50 0 83.5 -95.5t104.5 -95.5q16 0 34 3q128 48 141 63
q9 9 66 158q-4 163 -56 499q-51 324 -51 490q0 136 24 254q3 54 -22 168q-27 121 -27 172q0 112 86 166q102 -91 137 -284z" />
    <glyph glyph-name="i" unicode="i" horiz-adv-x="1450" 
d="M740 1845q-100 101 -271 101q-172 0 -265 -101l48 -48q240 -30 263 -30q147 0 225 78zM836 2075l54 -108q34 -70 34 -117q0 -59 -50 -100q-152 -129 -488 -182q-329 0 -392 229l-144 -67q49 226 584 412q44 6 89 6q155 0 313 -73zM482 1079l28 -746q64 -141 179 -141
q68 0 220.5 70.5t223.5 70.5l191 67q-83 -173 -273 -271q-122 -64 -359 -122q-31 -7 -63 -7q-97 0 -176.5 62.5t-104.5 155.5l-29 948q38 48 63 48q22 0 47 -57q29 -64 53 -78z" />
    <glyph glyph-name="j" unicode="j" horiz-adv-x="1452" 
d="M832 1758q8 -23 8 -45q0 -98 -119 -157q-84 -18 -174 -18q-213 0 -359 91q-47 47 -47 123q0 77 47 181q149 72 290 72q266 0 354 -247zM804 543q144 -292 195 -433q93 -253 93 -468q0 -103 -21 -204q-92 -202 -221 -267q-100 -23 -221 -23q-156 0 -476 55
q-331 57 -490 60q-16 24 -92 78q-56 41 -56 91q0 23 10 52q48 -5 139 -39q126 -47 146 -53q65 14 144 14q108 0 329.5 -35.5t318.5 -35.5q338 0 405 343l-145 375q-89 217 -187 361q-84 -121 -239 -163q-67 -19 -294 -39q-22 21 -20 74q2 76 1 82l252 92q151 58 190 175
l18 507q122 -17 160 -130q20 -61 24 -238q4 -163 37 -231z" />
    <glyph glyph-name="k" unicode="k" horiz-adv-x="2201" 
d="M1645 1686v-46q-697 15 -1105 -460q42 -178 195 -430q186 -307 229 -408q274 -174 526 -174q189 0 358 100q18 3 64 24q43 19 65 19q38 0 64 -43q3 -19 3 -36q0 -68 -70 -116q-124 -85 -126 -87q-210 -49 -381 -49q-289 0 -503 141q-163 107 -302 409q-149 321 -278 429
q-83 -155 -98 -469q-18 -358 -49 -461q-20 -7 -40 -7q-48 0 -82.5 35t-34.5 82v1593q23 46 129 46q72 -57 72 -176q0 -35 -8 -104t-8 -99q0 -37 8 -63q23 -10 45 -10q57 0 116 78l88 125l450 178q268 96 475 96q58 0 115 -7z" />
    <glyph glyph-name="l" unicode="l" horiz-adv-x="942" 
d="M479 -23q-155 37 -163 37q-315 273 -355 820q-12 174 -2 471q13 361 11 469q39 66 99 66q54 0 97 -46t39 -94q0 -99 -22 -363t-22 -405q0 -579 328 -728q151 9 174 -169q-70 -85 -184 -58z" />
    <glyph glyph-name="m" unicode="m" horiz-adv-x="2549" 
d="M902 948q77 8 131 137q53 125 129 125q31 0 72 -14q293 -35 542 -210q262 -184 369 -453q0 -62 21.5 -191t21.5 -194q0 -82 -25 -149q-89 41 -130 152q-23 64 -44 223q-20 155 -47 224q-62 161 -245 261q-17 8 -325 135q-168 -26 -191 -34q-106 -36 -106 -129
q0 -14 2 -31q87 -348 74 -708q-32 -12 -63 -12q-68 0 -114 50t-46 125q0 15 2 30q0 593 -359 709q-140 70 -303 70q-41 0 -75 -6l-36 -64q3 -121 23 -394q18 -241 18 -381q0 -80 -5 -155q-12 0 -43.5 -22t-48.5 -22q-20 0 -37 26q-183 291 -183 669q0 301 119 564
q67 14 134 14q186 0 402 -116q20 -10 366 -229z" />
    <glyph glyph-name="n" unicode="n" horiz-adv-x="1893" 
d="M1495 552q69 -330 69 -374q0 -103 -42 -178q-142 -6 -142 162q0 29 4 89.5t4 90.5q0 77 -22 118q-144 258 -378 410q-242 156 -534 170q-127 -42 -137 -47q-78 -39 -102 -110q-7 -44 -7 -92q0 -111 51.5 -313t51.5 -300q0 -95 -32 -178q-137 8 -176 117q-20 55 -21 232
q-2 158 -42 221q-3 48 -27 162q-21 104 -21 162q0 64 20 118q191 179 472 179q240 0 550 -133q241 -215 258 -232q137 -137 203 -274z" />
    <glyph glyph-name="o" unicode="o" horiz-adv-x="1884" 
d="M1454 534q-36 157 -156 297q-55 64 -239 228q-82 45 -171 45q-50 0 -159.5 -22.5t-176.5 -22.5q-300 -196 -300 -453q0 -35 6 -72q105 -216 386 -271l497 -42q4 3 202 81q129 51 129 147q0 38 -18 85zM1344 1040l-18 -18q186 -163 303 -442q8 -52 8 -101
q0 -262 -201 -369q-210 -110 -467 -110q-354 0 -969 267q-90 109 -90 248q0 125 76 287q29 61 143 257l488 267q83 -44 258 -62q196 -21 266 -45q138 -49 203 -179z" />
    <glyph glyph-name="p" unicode="p" horiz-adv-x="1934" 
d="M1402 748q-151 377 -621 377q-232 0 -484 -92q37 -124 55.5 -395.5t55.5 -396.5q171 -46 367 -46q395 0 646 175q48 53 48 121q0 49 -29 131q-33 94 -38 126zM1356 1033q246 -197 246 -535q0 -103 -25 -210q-226 -293 -738 -293q-190 0 -367 44q-66 -89 -66 -212
q0 -67 26 -200.5t26 -196.5q0 -106 -50 -183q-137 73 -137 310q0 39 4 120.5t4 122.5q0 154 -46 239q-81 23 -110 110v46q9 -3 18 -3q26 0 46 24t18 44q-26 400 -64 727l-124 -83q-75 -49 -97 -110q-18 22 -18 44q0 33 62.5 88t66.5 89q218 262 616 262q153 0 313 -41
q100 0 209 -91q119 -100 187 -112z" />
    <glyph glyph-name="q" unicode="q" horiz-adv-x="2099" 
d="M1445 656q-223 356 -435 468q-92 64 -200 64q-63 0 -171 -25q-135 -32 -182 -39q-210 -143 -265 -196q-137 -132 -137 -283q0 -66 25 -137q51 -91 143 -149l170 -100q190 -73 320 -73t453 73q158 12 214 77q39 45 43 148q6 127 22 172zM1562 968q99 -184 99 -419
q0 -212 -80 -401l46 -420l138 -74q-168 -67 -168 -252q0 -40 11 -79q0 -13 21.5 -43t21.5 -48q0 -20 -24 -38q-35 -46 -111 -46q-54 30 -54 104q0 24 6.5 72t6.5 70q0 100 -115 113q-28 3 -59 3q-39 0 -112 -6.5t-106 -6.5q-137 0 -202 93q30 90 138 90q35 0 118 -12.5
t127 -12.5q73 0 123 27q44 110 44 160q0 31 -24 89q-32 75 -47 153q-489 -108 -709 -108q-404 0 -617 237q-153 171 -153 477q0 59 6 121q73 347 635 534q727 0 1040 -377z" />
    <glyph glyph-name="r" unicode="r" horiz-adv-x="1380" 
d="M842 1301q11 11 28 11q14 0 48.5 -11t54.5 -11q59 -26 127 -76q57 -42 64 -42q78 -52 78 -170q0 -26 -6 -47l-20 -30q-104 222 -409 222q-73 0 -202 -14q-139 -14 -190 -16q-76 -2 -123 -77l-69 -136l91 -851q-26 -77 -123 -77q-25 0 -50 6q-143 279 -143 843
q0 59 1.5 175.5t1.5 172.5q0 64 -1 117q33 -4 76 -4q78 0 274 17t293 17q119 0 199 -19z" />
    <glyph glyph-name="s" unicode="s" horiz-adv-x="1832" 
d="M1267 1204q-3 -14 -3 -41v-4q0 -57 -27 -77q-88 100 -253 150l-284 73q-188 -22 -346 -141.5t-212 -274.5q78 -114 245 -169q233 -77 253 -89q329 -11 548 -150q153 -42 237 -111l157 -139q74 -34 74 -122q0 -15 -2.5 -46t-2.5 -47t2 -29q-147 -121 -350 -121
q-105 0 -324 45t-330 45q-87 0 -162 -19q-29 12 -194 38q-118 18 -171 83q-9 22 -9 41q0 86 113 86q20 0 38 -5q150 0 421 -46t403 -46q199 0 372 72q-18 67 -114 115l-160 77q-228 12 -557 122q-81 67 -285 85q-197 17 -293 107q-104 55 -104 168q0 50 24 143q27 99 29 135
q328 328 629 365l357 -64q207 -47 281 -209z" />
    <glyph glyph-name="t" unicode="t" horiz-adv-x="1624" 
d="M741 1349q33 -5 70 -5q73 0 192 21q174 32 194 34q1 -48 3 -96q-1 -58 -44 -76q-47 -28 -110 -28q-41 0 -122.5 16.5t-119.5 16.5q-105 0 -165 -96q51 -113 51 -309q0 -54 -4.5 -164.5t-4.5 -162.5q0 -344 202 -439l215 -2q123 -11 180 -99q-70 -94 -205 -94
q-64 0 -197 28.5t-191 28.5q-24 0 -46 -4l-192 1217q-70 93 -249 93q-38 0 -110 -4.5t-104 -4.5q-178 0 -178 137q0 40 12 93q26 3 54 3q91 0 235 -39l239 -65q100 82 100 243q0 48 -11 149.5t-11 151.5q0 147 74 236q147 -60 147 -251q0 -43 -8.5 -134.5t-8.5 -136.5
q0 -179 113 -258z" />
    <glyph glyph-name="u" unicode="u" horiz-adv-x="2243" 
d="M540 808q33 -298 92 -437q101 -237 323 -262l363 -42l211 85q127 56 177 150q3 107 -23 308q-28 212 -28 305q0 182 71 309q102 -40 134 -131q20 -56 19 -184q0 -132 19 -192q14 -226 104 -431q58 -132 210 -370l-40 -50l-345 314q-272 -293 -533 -293q-47 0 -88 12
q-51 -6 -100 -6q-194 0 -406.5 110.5t-284.5 110.5q-114 0 -240 -127q-112 -28 -188 -28q-162 0 -177 120q0 121 71 121l125 -42q79 -27 133 -27q58 0 107 29q149 137 149 324q0 100 -59 306.5t-59 311.5q0 135 70 244q108 -14 143 -113q19 -57 22 -209.5t28 -215.5z" />
    <glyph glyph-name="v" unicode="v" horiz-adv-x="1992" 
d="M1713 1177q-229 -685 -609 -993l-20 -173q-82 -35 -152 -35q-115 0 -249 116q-216 187 -258 213q-18 78 -176 171q-143 85 -138 194q-16 89 -160 208q-136 112 -136 193q0 62 53 136q88 13 142 -121l780 -882l461 466q278 295 340 558q81 16 122 -51z" />
    <glyph glyph-name="w" unicode="w" horiz-adv-x="2715" 
d="M987 634q-46 56 -193 346q-116 227 -169 223q-38 23 -38 61t38 61q71 -33 231 -261t220 -383l87 15l192 821q21 5 41 5q98 0 111 -96q-15 -154 -93 -432q-68 -241 -68 -398q0 -41 3 -82q62 -20 196 -139q122 -107 171 -107q33 0 55 33q218 138 304 423q29 97 91 530
l71 71q130 -126 130 -284q0 -153 -149 -417q-176 -314 -204 -415q-122 -149 -247 -149q-65 0 -118 48q-32 29 -154 78q-176 71 -207 85q-73 -23 -189 -165q-103 -125 -202 -125q-24 0 -49 5q-66 -10 -149 -10q-283 0 -459 132q-151 138 -217 364q-32 110 -73 421
q-35 269 -95 411q42 57 122 41q61 -130 95 -470q32 -328 107 -463q119 -217 426 -253q42 -13 88 -13q104 0 201 62.5t147 163.5q0 43 -28 129q-28 83 -26 133z" />
    <glyph glyph-name="x" unicode="x" horiz-adv-x="2156" 
d="M1590 1283l-285 -277q-137 -154 -186 -344q-8 -5 -8 -12q0 -29 225 -177q283 -186 407 -302q17 -6 41 -6q16 0 50 3.5t51 3.5q74 0 99 -66v-65q-27 -9 -74 -9q-120 0 -398 69.5t-294 69.5q-6 2 -188 91q-120 59 -200 59q-109 0 -192 -99q-134 -263 -307 -245
q-16 41 -16 77q0 77 127 179.5t127 209.5q0 30 -8 64q-275 169 -414 284q-224 186 -341 401l77 91q175 -224 442 -383q160 -96 499 -238q148 77 357 386q227 336 332 416q77 0 77 -181z" />
    <glyph glyph-name="y" unicode="y" horiz-adv-x="1764" 
d="M1453 -276v9q2 -1 3 -3q2 -3 -3 -4l5 -3q-6 -10 -22.5 -55.5l-51.5 -143.5q-76 -210 -96 -234q-27 -55 -138 -110q-84 -42 -178 -42q-88 0 -259 53q-141 43 -212 43q-97 0 -178 -58q-18 15 -51 48q-23 29 -5 66q176 7 523 26q303 19 366 78l153 307q27 262 -31 349
q-35 -32 -153 -54q-44 -8 -271 -36q-46 -22 -93 -22q-64 0 -153 46q-146 74 -147 75q-72 28 -137 22q-199 53 -334 341q-36 182 -36 373q0 259 68 540q32 14 57 14q54 0 77 -75q6 -30 27 -87q-98 -332 -98 -489q0 -170 75 -317q157 -157 395 -212q124 -29 448 -48l150 17
q2 29 44 50q49 24 60 47l-11 164q-41 72 -110 309q-59 205 -92 230q4 50 -24 138q-30 92 -30 136q0 93 107 127q100 -87 177 -412q56 -237 81 -501q116 -270 116 -538q0 -79 -10 -160z" />
    <glyph glyph-name="z" unicode="z" horiz-adv-x="2045" 
d="M1121 1272q94 -188 94 -261q0 -66 -38 -118q-376 -310 -679 -663q-15 -11 -30 -23.5t-10 -32.5q31 7 70 7q47 0 146 -13.5t147 -13.5q92 0 150 36q117 26 340 23q233 -2 339 17q39 -15 41 -58q-1 -38 -1 -77q-64 -77 -211 -77q-36 0 -105 5.5t-99 5.5q-34 0 -59 -5
q-58 9 -125 9q-100 0 -297.5 -28.5t-291.5 -28.5q-209 0 -352 104q-15 30 -15 53q0 49 67 72q17 6 122 25q141 204 150 339q49 84 307 312q202 178 206 336q-36 42 -78 42q-30 0 -91.5 -30t-95.5 -30q-13 0 -42.5 4t-45.5 4q-73 0 -217 -34t-210 -34q-128 0 -207 94
q-9 112 140 152q183 49 223 116q270 -35 388 -64q225 -56 370 -165z" />
    <glyph glyph-name="braceleft" unicode="{" horiz-adv-x="1101" 
d="M867 2219q42 -61 27 -129q-79 -21 -151 19q-83 46 -108 46q-16 0 -30 -6q-88 -64 -88 -197q0 -58 46 -263l-6 -344q-18 -195 -124 -314q94 -172 94 -439q0 -181 -41 -352q4 -83 -25 -673q92 -43 165 11q61 45 82 45q14 0 33 -5q59 -41 59 -89q0 -93 -146 -146
q-27 0 -92.5 -6t-99.5 -6q-182 0 -199 158q-6 52 -6 109q0 91 23 284q21 185 19 285q-2 64 7 197q10 143 10 209q0 205 -70 326q-70 7 -140 15q-101 12 -101 89q0 29 13 69q31 19 197 44q117 18 125 100q12 137 12 273q0 293 -58 586q60 31 95 73l21 27q63 77 124 102
q46 28 99 28q104 0 220 -100q6 -15 14 -26z" />
    <glyph glyph-name="braceright" unicode="}" horiz-adv-x="834" 
d="M445 1728q-20 -104 -103 -299q-42 -168 -42 -273q0 -146 72 -214h25q51 0 80 -21q36 -25 31 -77q8 -56 -46 -97q-27 0 -83 -4l-8 -2q-5 -32 -5 -68q0 -71 22 -185q28 -145 32 -181q21 -39 32 -101l20 -104q12 -133 12 -216q0 -230 -82 -361q-120 -113 -294 -113
q-65 0 -129 17l-91 109q84 36 178 36q84 0 118 9q104 62 104 261q0 56 -9.5 155t-9.5 133q-7 72 -57 261q-44 167 -44 264q0 85 27 159q-75 176 -75 367q0 270 142 519q21 60 21 130q0 109 -46 186q-67 17 -104 -24q-7 -46 -41 -46q-11 0 -21 7l-15 9q-8 5 -31 12
q-30 34 -30 66q0 24 19.5 55t19.5 39v21q83 52 183 52q163 0 202 -148q61 -156 26 -333z" />
    <glyph glyph-name="sterling" unicode="&#xa3;" horiz-adv-x="2168" 
d="M1780 2052q61 -146 61 -236q0 -53 -18 -99q-33 -45 -99 -45q-53 0 -116 27l-77 78q12 26 88 78q66 45 66 95q0 19 -8 42q-54 158 -292 249q-39 10 -77 10q-124 0 -239 -112q-64 -64 -166 -216q-67 -169 -82 -380q-4 -63 -4 -411q48 -43 154 -43q36 0 108.5 6t106.5 6
q178 0 178 -154q0 -29 -5 -65q-58 -42 -145 -42q-37 0 -114 10.5t-114 10.5q-105 0 -169 -65v-567l645 -18q-12 -125 69 -206q-155 -61 -472 -77q-359 -19 -491 -52q-84 40 -229 23q-201 -24 -231 -23q-124 7 -194 103q4 13 4 32q0 13 -2.5 39.5t-2.5 39.5q0 59 44 78
q46 13 110 13q49 0 153 -10t153 -10q220 0 255 179q-3 39 -3 84q0 34 2.5 100t2.5 97q0 157 -62 261q-96 -13 -178 -13q-264 0 -390 134v129q47 19 102 19q102 0 216 -62l267 26q-26 117 -26 248q0 302 172 818q179 275 464 310q30 3 59 3q176 0 316 -140q94 -93 210 -302z
" />
    <glyph glyph-name="bullet" unicode="&#x2022;" horiz-adv-x="973" 
d="M459 579q-200 27 -283 58q-141 53 -229 180q-18 64 -18 122q0 238 376 426q20 2 39 2q149 0 243 -90q43 -41 154 -217q12 -54 12 -108q0 -310 -294 -373z" />
    <glyph glyph-name="acute" unicode="&#xb4;" horiz-adv-x="723" 
d="M573 2238q-109 -160 -255 -278q-169 -139 -318 -157q-4 27 -4 52q0 140 173 269q239 179 281 237q50 2 88.5 -36.5t34.5 -86.5z" />
    <glyph glyph-name="dieresis" unicode="&#xa8;" horiz-adv-x="1748" 
d="M1462 1989q6 -75 -70 -124l-133 -70q-352 0 -352 168q0 52 39 118q81 91 213 91q216 0 303 -183zM596 1795q-6 -55 -53.5 -102t-102.5 -54q-37 23 -105 23q-24 0 -73 -3.5t-72 -3.5q-133 0 -146 113q-1 12 -1 23q0 85 63 150q59 62 141 75q232 -14 349 -221z" />
    <glyph glyph-name="yen" unicode="&#xa5;" horiz-adv-x="1941" 
d="M1522 1804q-220 -309 -270 -364q-177 -190 -380 -209q0 -21 -18.5 -65t-18.5 -65q0 -34 37 -54q64 -3 196 -3h7q269 0 371 -20l99 -207l-99 -53h-536q-32 -14 -32 -44q0 -18 14 -52q16 -38 18 -49q14 -35 61 -41l79 -2q44 -1 67 -19q38 24 109 23q101 -1 113 0
q12 -25 21 -106q7 -71 32 -100q-67 -18 -171 -18q-86 0 -172 1q-83 -4 -139 -21q-38 -52 -38 -122q0 -33 12 -104.5t12 -108.5q0 -38 -9 -71q-13 -23 -49 -23h-58q-58 52 -58 176q0 18 1 55.5t1 55.5q0 145 -97 180q-22 1 -328 -2q-199 -2 -322 40l-28.5 71.5t-9.5 73.5
l38 39q90 -21 200 -21q97 0 264 20q182 21 247 24q3 10 23 36q17 23 17 44q0 6 -1 11q-108 59 -267 59q-37 0 -116 -4t-121 -4q-41 0 -78 3q-156 57 -156 148q0 27 11 58v54q73 -11 165 -11q62 0 190.5 7t194.5 7q54 0 100 -3q30 62 30 120q0 109 -144 253
q-161 162 -184 239q-213 437 -222 750q114 -127 228 -410q116 -291 216 -409q37 0 106 -38l138 -77q206 79 360 246q166 180 199 389q52 45 52 150q0 16 -1.5 49t-1.5 50q0 110 58 157q115 -82 115 -252q0 -85 -32 -225q-41 -182 -45 -212z" />
    <glyph glyph-name="questiondown" unicode="&#xbf;" horiz-adv-x="1514" 
d="M-110 -193q-26 66 -26 135q0 158 136 343q61 83 214 151q190 85 231 116q107 81 107 221q6 54 6 115q0 94 -19.5 286t-19.5 285q0 62 6 115q41 70 106 70q20 0 142 -33q6 -72 40 -308q29 -194 29 -310q0 -275 -142 -459q-301 -163 -347 -195q-193 -133 -270 -311
q-7 -125 62 -231t186 -147q250 -32 337 -32q156 0 280 51q89 66 89 171q0 25 -6 49q14 8 33 8q46 0 86.5 -35t37.5 -83q-10 -147 -117 -207q-62 -34 -229 -59q-162 -24 -225 -65q-79 35 -270 66q-182 31 -265 73q-133 68 -192 220zM525 2080q-17 33 -17 59q0 62 103 102
l162 60q2 0 164 -31q100 -18 122 -107q1 -11 1 -23q0 -82 -71.5 -155t-150.5 -79q-36 18 -128 22q-95 5 -129 19q-59 26 -59 101q0 15 3 32z" />
    <glyph glyph-name="exclamdown" unicode="&#xa1;" horiz-adv-x="871" 
d="M554 1958q-64 -123 -216 -123q-81 0 -245 44q-172 46 -236 49q-25 41 -25 82q0 80 82 145q74 59 155 66l292 -71q168 -54 193 -192zM241 866q6 -102 56 -347q45 -223 45 -347q0 -150 -51 -276q54 -106 54 -265t-54 -250q-22 -8 -39 -8q-41 0 -64 51q-32 72 -38 78
q0 61 33.5 186t33.5 184q0 98 -67 166q3 53 3 109q0 200 -64 569.5t-64 552.5q0 53 4 103q30 22 57 22q26 0 64 -22q79 -69 79 -186q0 -30 -7 -94.5t-7 -96.5q0 -74 26 -129z" />
    <glyph glyph-name="endash" unicode="&#x2013;" 
d="M1280 506q7 -20 7 -37q0 -78 -102 -78q-18 0 -34 5q-50 3 -103 3q-121 0 -335 -24t-314 -24q-219 0 -399 81q77 165 302 165q40 0 125 -5.5t128 -5.5q114 0 191 31q30 -2 70 -2h106q265 -2 358 -109z" />
    <glyph glyph-name="emdash" unicode="&#x2014;" 
d="M1280 506q7 -20 7 -37q0 -78 -102 -78q-18 0 -34 5q-50 3 -103 3q-121 0 -335 -24t-314 -24q-219 0 -399 81q77 165 302 165q40 0 125 -5.5t128 -5.5q114 0 191 31q30 -2 70 -2h106q265 -2 358 -109z" />
    <glyph glyph-name="quotedblleft" unicode="&#x201c;" horiz-adv-x="925" 
d="M110 2003q16 -136 21 -300q3 -118 1 -301q-3 -259 -3 -301q-23 -11 -45 -11q-54 0 -94 57q-36 52 -36 110q-26 91 -26 180q0 88 37 252t37 264q0 25 -2 50h110zM500 1719q0 -78 15.5 -227.5t15.5 -220.5q0 -57 -6 -106q-15 -1 -29 -1q-136 0 -136 162q0 38 9 129t9 137
q0 95 -28 153v221q23 6 44 6q114 0 114 -123q0 -21 -4 -64.5t-4 -65.5z" />
    <glyph glyph-name="quotedblright" unicode="&#x201d;" horiz-adv-x="925" 
d="M110 2003q16 -136 21 -300q3 -118 1 -301q-3 -259 -3 -301q-23 -11 -45 -11q-54 0 -94 57q-36 52 -36 110q-26 91 -26 180q0 88 37 252t37 264q0 25 -2 50h110zM500 1719q0 -78 15.5 -227.5t15.5 -220.5q0 -57 -6 -106q-15 -1 -29 -1q-136 0 -136 162q0 38 9 129t9 137
q0 95 -28 153v221q23 6 44 6q114 0 114 -123q0 -21 -4 -64.5t-4 -65.5z" />
    <glyph glyph-name="quoteleft" unicode="&#x2018;" horiz-adv-x="498" 
d="M110 2003q16 -136 21 -300q3 -118 1 -301q-3 -259 -3 -301q-23 -11 -45 -11q-54 0 -94 57q-36 52 -36 110q-26 91 -26 180q0 88 37 252t37 264q0 25 -2 50h110z" />
    <glyph glyph-name="quoteright" unicode="&#x2019;" horiz-adv-x="498" 
d="M110 2003q16 -136 21 -300q3 -118 1 -301q-3 -259 -3 -301q-23 -11 -45 -11q-54 0 -94 57q-36 52 -36 110q-26 91 -26 180q0 88 37 252t37 264q0 25 -2 50h110z" />
    <glyph glyph-name="periodcentered" unicode="&#xb7;" horiz-adv-x="712" 
d="M492 1006q7 -32 7 -64q0 -186 -164 -221q-146 19 -209 40q-114 37 -168 116q-10 34 -10 66q0 146 277 284q95 6 164 -69q19 -20 103 -152z" />
    <glyph glyph-name="periodcentered" unicode="&#x2219;" horiz-adv-x="712" 
d="M492 1006q7 -32 7 -64q0 -186 -164 -221q-146 19 -209 40q-114 37 -168 116q-10 34 -10 66q0 146 277 284q95 6 164 -69q19 -20 103 -152z" />
    <glyph glyph-name="perthousand" unicode="&#x2030;" horiz-adv-x="3369" 
d="M1775 2194q-156 -410 -474 -974l-545 -944l40 -40q-33 -17 -95 -134q-54 -103 -115 -103q-29 0 -64 19q-21 39 -21 79q0 55 49 139q59 99 69 137q491 904 999 1999l121 121q100 -52 100 -119q0 -33 -27 -89q-32 -66 -37 -91zM893 1824q-61 92 -173 153t-225 61
q-126 0 -207 -77q0 -12 19 -35t19 -35q0 -15 -22 -27l-40 40q-102 -17 -113 -80q-16 -38 -16 -88q0 -104 73 -130q167 -80 360 -80q95 0 172 23q142 117 153 275zM949 1961q22 -85 22 -154q0 -125 -78 -258q-82 -102 -222 -165l-246 -92q-348 34 -411 233q-83 79 -83 191
q0 78 59 245q55 155 258 217q258 -16 378 -45q200 -49 323 -172zM2191 1042q-40 18 -84 18q-84 0 -215 -83l-85 -132q-52 -84 -52 -143q0 -42 25 -80q31 -17 78 -17q121 0 212 82l93 125q50 77 50 140q0 45 -22 90zM2304 1074q0 -365 -234 -548q-35 -15 -172 -105
q-98 -64 -172 -64q-41 0 -83 16q-168 90 -168 237q0 26 6 53q45 187 163 334q124 155 289 214q42 4 79 4q212 0 292 -141zM3083 1042q-39 18 -83 18q-85 0 -215 -83l-85 -132q-53 -84 -53 -143q0 -42 25 -80q32 -17 79 -17q120 0 211 82l93 125q51 77 51 140q0 45 -23 90z
M3196 1074q0 -365 -234 -548q-35 -15 -171 -105q-98 -64 -173 -64q-40 0 -83 16q-167 90 -167 237q0 26 6 53q45 187 163 334q124 155 288 214q42 4 80 4q212 0 291 -141z" />
    <glyph glyph-name="brokenbar" unicode="&#xa6;" horiz-adv-x="24403" 
 />
    <glyph glyph-name="minus" unicode="&#xad;" 
d="M1280 506q7 -20 7 -37q0 -78 -102 -78q-18 0 -34 5q-50 3 -103 3q-121 0 -335 -24t-314 -24q-219 0 -399 81q77 165 302 165q40 0 125 -5.5t128 -5.5q114 0 191 31q30 -2 70 -2h106q265 -2 358 -109z" />
    <glyph glyph-name="minus" unicode="&#x2212;" 
d="M1280 506q7 -20 7 -37q0 -78 -102 -78q-18 0 -34 5q-50 3 -103 3q-121 0 -335 -24t-314 -24q-219 0 -399 81q77 165 302 165q40 0 125 -5.5t128 -5.5q114 0 191 31q30 -2 70 -2h106q265 -2 358 -109z" />
    <glyph glyph-name="Adieresis" unicode="&#xc4;" horiz-adv-x="1902" 
d="M1373 725q-180 799 -749 929q-216 -47 -380 -210q-103 -350 -103 -511q0 -146 54 -278q130 0 388 22t385 22q211 0 375 -44q0 60 30 70zM1203 1564q252 -361 459 -1079q-66 -57 -66 -136q0 -57 44 -160t44 -141q0 -84 -141 -112q-72 66 -90 200l-30 230
q-100 -28 -220 -28q-103 0 -314.5 30t-322.5 30q-135 0 -252 -32q-5 -20 -5 -41q0 -47 42.5 -142.5t42.5 -147.5t-30 -99q-24 -4 -47 -4q-113 0 -176 112q-1 3 -91 235q-58 150 -145 206q14 85 26 465q10 303 71 466q87 234 312 337q117 54 243 54q152 0 338 -82
q51 -23 308 -161zM1255 2282q0 -172 -201 -172q-61 0 -109 22q-130 16 -149 150q-7 21 -7 43q0 62 46 111t110 55q22 5 44 5q88 0 166 -67q71 -62 100 -147zM446 2132l-20 -190q-70 -28 -141 -28q-154 0 -418 198l-45 157q0 53 45 83q52 5 103 5q358 0 476 -225z" />
    <glyph glyph-name="Ccedilla" unicode="&#xc7;" horiz-adv-x="2423" 
d="M1877 1698q-42 -46 -102 -46q-52 0 -152 43q-110 46 -155 53q-128 35 -253 35q-539 0 -1015 -634q-36 -104 -36 -207q0 -314 315 -582q101 -86 292 -126l307 -64q52 111 52 283q0 31 -2 94t-2 94q0 197 72 318q19 6 36 6q55 0 89 -58q29 -52 29 -122q0 -24 -4 -46
q10 -38 10 -85q0 -51 -16 -150t-16 -141q0 -119 92 -173l317 35q186 22 302 65q49 -18 51 -73q-1 -48 -1 -97q-116 -83 -380 -120q-290 -40 -385 -89q-183 -93 -214 -340q-295 -389 -868 -389q-70 31 -70 113q0 55 30 106q505 30 838 480q-36 46 -120 46q-13 0 -39 -1
t-39 -1q-84 0 -121 46q-244 70 -442 249q-212 192 -277 430q-10 99 -10 191q0 426 210 667l460 319q280 179 502 179q164 0 326 -88q42 -36 209 -88q135 -41 180 -132z" />
    <glyph glyph-name="Eacute" unicode="&#xc9;" horiz-adv-x="2026" 
d="M1478 1751q-17 -127 -183 -127q-26 0 -84 3t-87 3q-94 0 -146 -29q-64 -6 -256 -44q-161 -32 -253 -32q-48 0 -90 6q-51 -74 -51 -236q0 -36 3 -110.5t3 -110.5q0 -52 -5 -92q0 -24 28 -53q42 -46 42 -47q25 4 212 44q140 30 226 30q158 0 241 -94q9 -21 9 -41
q0 -46 -48 -89l-81 -59q-78 47 -173 47q-91 0 -220 -48l-206 -79q-32 -180 -32 -216q0 -115 72 -164q53 8 114 8q71 0 208 -14.5t202 -14.5q166 0 275 71q40 -21 100 -21q52 0 166 23.5t163 23.5q160 0 170 -195q-12 -103 -147 -103q-27 0 -77 4.5t-70 4.5q-29 0 -45 -6
l-556 -60q-326 -31 -568 -31q-48 0 -94 1q-197 264 -197 812q0 73 3 219.5t3 217.5q0 298 -49 478q-12 44 -12 74q0 80 129 90q140 11 162 96q130 -25 309 -25q62 0 183.5 4t179.5 4q343 0 527 -123zM828 2426q13 -45 13 -84q0 -112 -140 -202q-177 -114 -212 -173
q-15 5 -31 5q-21 0 -61.5 -12.5t-58.5 -12.5q-42 0 -69 50q202 354 479 499z" />
    <glyph glyph-name="Ntilde" unicode="&#xd1;" horiz-adv-x="2530" 
d="M699 1185q72 -87 282 -423q254 -407 319 -502q187 -63 298 -63q110 0 199 49q190 104 190 288q0 107 -77 307q-84 215 -93 294q-18 43 -127 156q-91 93 -91 163q0 44 29 90l119 -30q412 -595 412 -971q0 -240 -142 -437q-130 -103 -320 -103q-112 0 -359 53l-210 260
l33 -10l-272 329q-64 191 -251 379l-348 310q-67 -156 -67 -323q0 -81 17 -156l169 -739l-99 -70q-156 143 -214 389q-35 151 -49 474q-14 328 -47 475l79 167q62 109 129 109q48 0 102 -56q82 -55 194 -223q99 -149 195 -186zM1431 2277q21 129 100 140q16 6 31 6
q79 0 88 -76q3 -23 3 -46q0 -160 -142 -319q-73 -80 -270 -234q-47 -9 -93 -9q-166 0 -356 127l-320 242q-30 14 -54 14q-45 0 -78 -62q-44 -81 -58 -92q-46 51 -46 128q0 105 116 321q144 19 420 -191q286 -218 399 -218q160 0 260 269z" />
    <glyph glyph-name="Odieresis" unicode="&#xd6;" horiz-adv-x="2113" 
d="M1656 1049q-294 515 -768 529l-256 -69q-156 -43 -174 -151q-278 -132 -278 -487q0 -55 9 -112q18 -120 153 -206l236 -123q320 -52 490 -52q367 0 588 191q54 100 54 244q0 142 -54 236zM1706 1238q164 -333 164 -581q0 -188 -94 -327q-556 -259 -942 -259
q-320 0 -546 169l-263 293q-143 178 -146 346q-4 288 185 536q177 232 444 333q156 59 320 59q275 0 515 -157q237 -155 363 -412zM1339 2282q0 -172 -201 -172q-61 0 -109 22q-130 16 -149 150q-7 21 -7 43q0 62 46 111t110 55q22 5 44 5q88 0 166 -67q71 -62 100 -147z
M530 2132l-20 -190q-70 -28 -141 -28q-154 0 -418 198l-45 157q0 53 45 83q52 5 103 5q358 0 476 -225z" />
    <glyph glyph-name="Udieresis" unicode="&#xdc;" horiz-adv-x="2235" 
d="M1318 1900q253 -384 337 -554q162 -328 162 -613q0 -162 -50 -320q-94 -300 -289 -410q-184 -70 -403 -70q-417 0 -676 220q-519 573 -519 1137q0 259 120 491q16 5 32 5q53 0 128 -125q-92 -197 -92 -416q0 -496 411 -932q205 -127 546 -127q167 0 293 37
q291 226 280 599q-8 243 -145 527l-255 481q-5 15 -5 27q0 43 125 43zM1339 2282q0 -172 -201 -172q-61 0 -109 22q-130 16 -149 150q-7 21 -7 43q0 62 46 111t110 55q22 5 44 5q88 0 166 -67q71 -62 100 -147zM530 2132l-20 -190q-70 -28 -141 -28q-154 0 -418 198l-45 157
q0 53 45 83q52 5 103 5q358 0 476 -225z" />
    <glyph glyph-name="aacute" unicode="&#xe1;" horiz-adv-x="2282" 
d="M1151 707q-165 171 -442 171q-350 0 -506 -253q-33 -81 -33 -132q0 -83 79 -135q240 -124 593 -124q279 0 622 78zM1436 1333q160 -143 247 -365q52 -133 111 -416t112 -415q-17 4 -33 4q-54 0 -125.5 -71t-105.5 -71q-45 0 -95 73q-105 -2 -383 -28q-264 -25 -409 -25
q-549 0 -755 320q-11 50 -11 97q0 162 186 410q104 110 269 162q99 31 311 58q434 -33 856 -616q3 37 3 74q0 251 -126 475.5t-356 370.5q-85 23 -178 23q-210 0 -420 -106q-2 15 -2 29q0 87 70 156q63 62 153 82q64 7 124 7q351 0 557 -228zM1309 2238q-109 -160 -255 -278
q-169 -139 -318 -157q-4 27 -4 52q0 140 173 269q239 179 281 237q50 2 88.5 -36.5t34.5 -86.5z" />
    <glyph glyph-name="agrave" unicode="&#xe0;" horiz-adv-x="2282" 
d="M1151 707q-165 171 -442 171q-350 0 -506 -253q-33 -81 -33 -132q0 -83 79 -135q240 -124 593 -124q279 0 622 78zM1436 1333q160 -143 247 -365q52 -133 111 -416t112 -415q-17 4 -33 4q-54 0 -125.5 -71t-105.5 -71q-45 0 -95 73q-105 -2 -383 -28q-264 -25 -409 -25
q-549 0 -755 320q-11 50 -11 97q0 162 186 410q104 110 269 162q99 31 311 58q434 -33 856 -616q3 37 3 74q0 251 -126 475.5t-356 370.5q-85 23 -178 23q-210 0 -420 -106q-2 15 -2 29q0 87 70 156q63 62 153 82q64 7 124 7q351 0 557 -228zM1436 1941q6 -16 6 -31
q0 -68 -98 -107q-112 66 -393 185q-257 109 -380 192q-13 28 -13 49q0 83 169 62q20 -10 362 -158q215 -93 347 -192z" />
    <glyph glyph-name="adieresis" unicode="&#xe4;" horiz-adv-x="2282" 
d="M1151 707q-165 171 -442 171q-350 0 -506 -253q-33 -81 -33 -132q0 -83 79 -135q240 -124 593 -124q279 0 622 78zM1436 1333q160 -143 247 -365q52 -133 111 -416t112 -415q-17 4 -33 4q-54 0 -125.5 -71t-105.5 -71q-45 0 -95 73q-105 -2 -383 -28q-264 -25 -409 -25
q-549 0 -755 320q-11 50 -11 97q0 162 186 410q104 110 269 162q99 31 311 58q434 -33 856 -616q3 37 3 74q0 251 -126 475.5t-356 370.5q-85 23 -178 23q-210 0 -420 -106q-2 15 -2 29q0 87 70 156q63 62 153 82q64 7 124 7q351 0 557 -228zM1722 2153q5 -75 -70 -124
l-133 -69q-352 0 -352 167q0 52 39 118q80 91 213 91q216 0 303 -183zM856 1960q-7 -56 -54 -103t-102 -54q-37 23 -105 23q-24 0 -73 -3.5t-72 -3.5q-133 0 -146 113q-1 12 -1 23q0 85 63 150q59 62 141 75q231 -14 349 -220z" />
    <glyph glyph-name="ccedilla" unicode="&#xe7;" horiz-adv-x="2045" 
d="M1682 1224q2 -45 3 -90q0 -51 -42 -69q-19 129 -180 219l-275 138q-331 0 -762 -198q-252 -252 -252 -487q0 -55 14 -107q37 -137 182 -237q75 -51 273 -139q29 -25 63 -25q99 0 145 124q46 37 46 102q0 47 -33 142t-33 128q0 81 139 73q76 -60 88 -225l12 -264
q19 -127 118 -127q78 0 217 72q5 18 21 23q12 3 35 0q30 -3 33 -3q20 -42 20 -72q0 -64 -124 -92q-150 -33 -183 -74q-53 13 -100 13q-147 0 -264 -138l-190 -263q-122 -145 -277 -156q-16 1 -32 1q-53 0 -150.5 -22.5t-139.5 -22.5q-111 0 -173 113q39 33 101 33
q34 0 109 -14t111 -14q105 0 154 94q23 76 155 195q122 110 132 211l-418 236q-237 156 -225 377q-1 23 -1 45q0 223 129 417q121 182 327 300q315 103 579 103q462 0 648 -320z" />
    <glyph glyph-name="eacute" unicode="&#xe9;" horiz-adv-x="2335" 
d="M1519 952q-131 271 -628 271q-56 0 -164 -4q-43 -31 -155 -65t-153 -63q-69 -49 -69 -139q103 -248 418 -248q53 0 166.5 7t171.5 7q60 0 109 -5q20 14 193 51q126 26 126 113q0 32 -15 75zM1565 1192q159 -231 159 -366q0 -85 -49 -159q-348 -202 -774 -202
q-269 0 -487 91l-239 240q-73 -39 -73 -131q0 -71 45 -173q128 -161 361 -222q156 -40 447 -47q330 -8 435 -26l292 33q172 20 279 60q70 -47 70 -118q0 -19 -6 -39q-356 -134 -803 -134q-634 0 -1139 244q-166 107 -166 315q0 127 83 376q127 212 321 339q201 133 425 140
q508 15 819 -221zM1309 2238q-109 -160 -255 -278q-169 -139 -318 -157q-4 27 -4 52q0 140 173 269q239 179 281 237q50 2 88.5 -36.5t34.5 -86.5z" />
    <glyph glyph-name="egrave" unicode="&#xe8;" horiz-adv-x="2335" 
d="M1519 952q-131 271 -628 271q-56 0 -164 -4q-43 -31 -155 -65t-153 -63q-69 -49 -69 -139q103 -248 418 -248q53 0 166.5 7t171.5 7q60 0 109 -5q20 14 193 51q126 26 126 113q0 32 -15 75zM1565 1192q159 -231 159 -366q0 -85 -49 -159q-348 -202 -774 -202
q-269 0 -487 91l-239 240q-73 -39 -73 -131q0 -71 45 -173q128 -161 361 -222q156 -40 447 -47q330 -8 435 -26l292 33q172 20 279 60q70 -47 70 -118q0 -19 -6 -39q-356 -134 -803 -134q-634 0 -1139 244q-166 107 -166 315q0 127 83 376q127 212 321 339q201 133 425 140
q508 15 819 -221zM1269 1941q6 -16 6 -31q0 -68 -98 -107q-112 66 -394 185q-256 109 -379 192q-13 28 -13 49q0 83 169 62q20 -10 362 -158q215 -93 347 -192z" />
    <glyph glyph-name="edieresis" unicode="&#xeb;" horiz-adv-x="2335" 
d="M1519 952q-131 271 -628 271q-56 0 -164 -4q-43 -31 -155 -65t-153 -63q-69 -49 -69 -139q103 -248 418 -248q53 0 166.5 7t171.5 7q60 0 109 -5q20 14 193 51q126 26 126 113q0 32 -15 75zM1565 1192q159 -231 159 -366q0 -85 -49 -159q-348 -202 -774 -202
q-269 0 -487 91l-239 240q-73 -39 -73 -131q0 -71 45 -173q128 -161 361 -222q156 -40 447 -47q330 -8 435 -26l292 33q172 20 279 60q70 -47 70 -118q0 -19 -6 -39q-356 -134 -803 -134q-634 0 -1139 244q-166 107 -166 315q0 127 83 376q127 212 321 339q201 133 425 140
q508 15 819 -221zM1722 2153q5 -75 -70 -124l-133 -69q-352 0 -352 167q0 52 39 118q80 91 213 91q216 0 303 -183zM856 1960q-7 -56 -54 -103t-102 -54q-37 23 -105 23q-24 0 -73 -3.5t-72 -3.5q-133 0 -146 113q-1 12 -1 23q0 85 63 150q59 62 141 75q231 -14 349 -220z
" />
    <glyph glyph-name="iacute" unicode="&#xed;" horiz-adv-x="1370" 
d="M322 1079l29 -746q64 -141 179 -141q68 0 220.5 70.5t222.5 70.5l192 67q-83 -173 -273 -271q-122 -64 -359 -122q-31 -7 -64 -7q-96 0 -176 62.5t-105 155.5l-28 948q38 48 62 48q23 0 48 -57q29 -64 52 -78zM720 2083q-109 -160 -254 -278q-170 -139 -319 -157
q-4 27 -4 52q0 140 174 269q239 179 280 236q51 3 89 -35.5t34 -86.5z" />
    <glyph glyph-name="igrave" unicode="&#xec;" horiz-adv-x="1409" 
d="M361 1079l29 -746q64 -141 178 -141q68 0 220.5 70.5t223.5 70.5l191 67q-83 -173 -273 -271q-121 -64 -358 -122q-32 -7 -64 -7q-97 0 -176.5 62.5t-104.5 155.5l-29 948q38 48 63 48q22 0 48 -57q28 -64 52 -78zM566 1705q6 -16 6 -31q0 -68 -98 -107q-112 66 -394 185
q-256 109 -379 192q-13 28 -13 49q0 83 169 62q20 -10 362 -158q215 -93 347 -192z" />
    <glyph glyph-name="idieresis" unicode="&#xef;" horiz-adv-x="1530" 
d="M482 1079l29 -746q64 -141 178 -141q68 0 220.5 70.5t223.5 70.5l191 67q-83 -173 -273 -271q-121 -64 -358 -122q-32 -7 -64 -7q-97 0 -176.5 62.5t-104.5 155.5l-29 948q38 48 63 48q22 0 47 -57q29 -64 53 -78zM1167 1832q5 -75 -71 -124l-132 -69q-352 0 -352 167
q0 52 39 118q80 91 213 91q215 0 303 -183zM301 1639q-7 -55 -54 -102.5t-102 -53.5q-37 22 -105 22q-24 0 -73 -3.5t-72 -3.5q-134 0 -146 113q-1 12 -1 24q0 84 63 150q59 61 140 75q232 -15 350 -221z" />
    <glyph glyph-name="ntilde" unicode="&#xf1;" horiz-adv-x="1853" 
d="M1455 552q69 -330 69 -374q0 -103 -42 -178q-142 -6 -142 162q0 29 4 89.5t4 90.5q0 77 -22 118q-144 258 -378 410q-242 156 -534 170q-127 -42 -137 -47q-78 -39 -102 -110q-6 -44 -6 -92q0 -111 51 -313t51 -300q0 -95 -32 -178q-137 8 -176 117q-20 55 -21 232
q-2 158 -42 221q-3 48 -27 162q-21 104 -21 162q0 64 20 118q191 179 472 179q240 0 550 -133q241 -215 258 -232q137 -137 203 -274zM948 1529q42 21 111 123q57 84 120 84q17 0 36 -4q39 -28 39 -65q0 -27 -85 -156q-77 -118 -210 -118q-80 0 -232 53l-231 118
q-185 85 -307 85q-128 0 -189 -92q-28 34 -28 73q0 58 54 109q51 49 112 57q14 2 30 2q121 0 403.5 -138.5t342.5 -138.5q21 0 34 8z" />
    <glyph glyph-name="oacute" unicode="&#xf3;" horiz-adv-x="2014" 
d="M1455 534q-37 157 -157 297q-55 64 -239 228q-82 45 -170 45q-51 0 -160 -22.5t-177 -22.5q-300 -196 -300 -453q0 -35 6 -72q105 -216 386 -271l498 -42q3 3 201 81q129 51 129 147q0 38 -17 85zM1344 1040l-18 -18q186 -163 303 -442q8 -52 8 -101q0 -262 -201 -369
q-210 -110 -467 -110q-354 0 -969 267q-90 109 -90 248q0 125 76 287q29 61 143 257l488 267q83 -44 258 -62q196 -21 266 -45q138 -49 203 -179zM1202 2056q-109 -160 -255 -278q-169 -139 -318 -157q-4 27 -4 52q0 140 173 269q239 179 281 236q50 3 88.5 -35.5
t34.5 -86.5z" />
    <glyph glyph-name="ograve" unicode="&#xf2;" horiz-adv-x="2014" 
d="M1455 534q-37 157 -157 297q-55 64 -239 228q-82 45 -170 45q-51 0 -160 -22.5t-177 -22.5q-300 -196 -300 -453q0 -35 6 -72q105 -216 386 -271l498 -42q3 3 201 81q129 51 129 147q0 38 -17 85zM1344 1040l-18 -18q186 -163 303 -442q8 -52 8 -101q0 -262 -201 -369
q-210 -110 -467 -110q-354 0 -969 267q-90 109 -90 248q0 125 76 287q29 61 143 257l488 267q83 -44 258 -62q196 -21 266 -45q138 -49 203 -179zM946 1867q6 -16 6 -31q0 -68 -98 -107q-112 66 -394 185q-256 109 -379 192q-13 28 -13 49q0 83 169 62q20 -10 362 -158
q215 -93 347 -192z" />
    <glyph glyph-name="odieresis" unicode="&#xf6;" horiz-adv-x="2014" 
d="M1455 534q-37 157 -157 297q-55 64 -239 228q-82 45 -170 45q-51 0 -160 -22.5t-177 -22.5q-300 -196 -300 -453q0 -35 6 -72q105 -216 386 -271l498 -42q3 3 201 81q129 51 129 147q0 38 -17 85zM1344 1040l-18 -18q186 -163 303 -442q8 -52 8 -101q0 -262 -201 -369
q-210 -110 -467 -110q-354 0 -969 267q-90 109 -90 248q0 125 76 287q29 61 143 257l488 267q83 -44 258 -62q196 -21 266 -45q138 -49 203 -179zM1462 1989q6 -75 -70 -124l-133 -70q-352 0 -352 168q0 52 39 118q81 91 213 91q216 0 303 -183zM596 1795q-6 -55 -53.5 -102
t-102.5 -54q-37 23 -105 23q-24 0 -73 -3.5t-72 -3.5q-133 0 -146 113q-1 12 -1 23q0 85 63 150q59 62 141 75q232 -14 349 -221z" />
    <glyph glyph-name="uacute" unicode="&#xfa;" horiz-adv-x="2795" 
d="M730 808q33 -298 92 -437q101 -237 323 -262l363 -42l211 85q127 56 177 150q3 107 -23 308q-28 212 -28 305q0 182 71 309q102 -40 134 -131q20 -56 19 -184q0 -132 19 -192q14 -226 104 -431q58 -132 210 -370l-40 -50l-345 314q-272 -293 -533 -293q-47 0 -88 12
q-51 -6 -99 -6q-195 0 -407.5 110.5t-284.5 110.5q-114 0 -240 -127q-112 -28 -188 -28q-162 0 -177 120q0 121 71 121l125 -42q79 -27 133 -27q58 0 107 29q149 137 149 324q0 100 -59 306.5t-59 311.5q0 135 70 244q108 -14 143 -113q19 -57 22 -209.5t28 -215.5z
M1732 2043q-109 -160 -255 -278q-169 -139 -318 -157q-4 27 -4 52q0 140 173 269q239 179 281 236q50 3 88.5 -35.5t34.5 -86.5z" />
    <glyph glyph-name="ugrave" unicode="&#xf9;" horiz-adv-x="2795" 
d="M730 808q33 -298 92 -437q101 -237 323 -262l363 -42l211 85q127 56 177 150q3 107 -23 308q-28 212 -28 305q0 182 71 309q102 -40 134 -131q20 -56 19 -184q0 -132 19 -192q14 -226 104 -431q58 -132 210 -370l-40 -50l-345 314q-272 -293 -533 -293q-47 0 -88 12
q-51 -6 -99 -6q-195 0 -407.5 110.5t-284.5 110.5q-114 0 -240 -127q-112 -28 -188 -28q-162 0 -177 120q0 121 71 121l125 -42q79 -27 133 -27q58 0 107 29q149 137 149 324q0 100 -59 306.5t-59 311.5q0 135 70 244q108 -14 143 -113q19 -57 22 -209.5t28 -215.5z
M1436 1941q6 -16 6 -31q0 -68 -98 -107q-112 66 -393 185q-257 109 -380 192q-13 28 -13 49q0 83 169 62q20 -10 362 -158q215 -93 347 -192z" />
    <glyph glyph-name="udieresis" unicode="&#xfc;" horiz-adv-x="2795" 
d="M730 808q33 -298 92 -437q101 -237 323 -262l363 -42l211 85q127 56 177 150q3 107 -23 308q-28 212 -28 305q0 182 71 309q102 -40 134 -131q20 -56 19 -184q0 -132 19 -192q14 -226 104 -431q58 -132 210 -370l-40 -50l-345 314q-272 -293 -533 -293q-47 0 -88 12
q-51 -6 -99 -6q-195 0 -407.5 110.5t-284.5 110.5q-114 0 -240 -127q-112 -28 -188 -28q-162 0 -177 120q0 121 71 121l125 -42q79 -27 133 -27q58 0 107 29q149 137 149 324q0 100 -59 306.5t-59 311.5q0 135 70 244q108 -14 143 -113q19 -57 22 -209.5t28 -215.5z
M1940 2009q5 -75 -71 -124l-132 -69q-352 0 -352 167q0 52 39 118q80 91 213 91q215 0 303 -183zM1074 1816q-7 -55 -54 -102.5t-102 -53.5q-37 22 -105 22q-24 0 -73 -3.5t-72 -3.5q-134 0 -146 113q-1 12 -1 24q0 84 63 150q59 61 140 75q232 -15 350 -221z" />
    <glyph glyph-name="summation" unicode="&#x2211;" horiz-adv-x="2978" 
d="M2610 1774q-114 32 -320 69q-109 40 -218 40q-225 0 -505 -187l-465 -332q128 -40 457 -64q296 -21 442 -86v-100q-114 -12 -587 -29q-384 -14 -602 -60q-42 -31 -65 -93l-34 -107l49 -50q193 28 476 29h477q179 4 316 21q94 -47 94 -96q0 -23 -25 -44
q-258 -96 -650 -116l-688 -34q-46 -23 -46 -74q0 -30 26 -45q67 -129 212 -171q88 -25 279 -25q186 -1 258 -24q131 82 396 125q297 48 403 95l250 -20v-80q-645 -317 -1262 -317q-289 0 -536 77l-151 190q-75 111 -68 219q-8 5 -260 69q-170 44 -229 151l41 100
q28 57 78 70q215 -78 281 -78q32 0 59 8q60 12 87 80l43 110q-120 47 -304 47q-32 0 -96 -1.5t-95 -1.5q-247 0 -384 105l16 89q12 57 54 81q45 4 98 4q97 0 306.5 -20t313.5 -20q474 0 640 376l441 251q260 139 468 139q105 0 209 -31l179 -93q105 -56 141 -146z" />
    <glyph glyph-name="pi" unicode="&#x3c0;" horiz-adv-x="2103" 
d="M1339 904q90 -95 99 -305q10 -218 85 -312q14 -2 27 -2q62 0 162.5 56.5t160.5 56.5l-108 -207q-83 -125 -205 -125q-139 28 -193 378q-73 291 -203 525q-102 102 -251 143q-9 -6 -14 -11q-61 0 -273 -26l-60 -60l46 -949q-45 -67 -102 -67q-29 0 -55 21
q-117 179 -117 498q0 103 13 269q17 218 19 261q-245 -20 -460 -5q-23 30 -23 57q0 26 23 64q69 79 185 79q31 0 95.5 -6.5t96.5 -6.5q74 0 128 25l104 8q59 51 139 37q86 0 168 -17q123 0 194 -41q6 -16 7 -29q203 -104 312 -309z" />
    <glyph glyph-name="nonbreakingspace" unicode="&#xa0;" horiz-adv-x="1154" 
 />
    <glyph glyph-name="Agrave" unicode="&#xc0;" horiz-adv-x="1902" 
d="M1373 725q-180 799 -749 929q-216 -47 -380 -210q-103 -350 -103 -511q0 -146 54 -278q130 0 388 22t385 22q211 0 375 -44q0 60 30 70zM1203 1564q252 -361 459 -1079q-66 -57 -66 -136q0 -57 44 -160t44 -141q0 -84 -141 -112q-72 66 -90 200l-30 230
q-100 -28 -220 -28q-103 0 -314.5 30t-322.5 30q-135 0 -252 -32q-5 -20 -5 -41q0 -47 42.5 -142.5t42.5 -147.5t-30 -99q-24 -4 -47 -4q-113 0 -176 112q-1 3 -91 235q-58 150 -145 206q14 85 26 465q10 303 71 466q87 234 312 337q117 54 243 54q152 0 338 -82
q51 -23 308 -161zM909 2098l-90 -70q-85 49 -436 128q-274 63 -383 211q-2 16 -2 29q0 101 117 101t195 -60q72 -55 220 -96q176 -47 226 -73q113 -57 153 -170z" />
    <glyph glyph-name="divide" unicode="&#xf7;" 
d="M1280 666q7 -20 7 -37q0 -78 -102 -78q-18 0 -34 5q-50 3 -103 3q-121 0 -335 -24t-314 -24q-219 0 -399 81q77 165 302 165q40 0 125 -5.5t128 -5.5q114 0 191 31q30 -2 70 -2h106q265 -2 358 -109zM932 1109q6 -22 6 -44q0 -101 -117 -159q-276 0 -368 92
q-10 35 -10 66q0 83 82 153l149 112q22 6 42 6q76 0 132 -82zM895 196q10 -27 10 -51q0 -58 -57 -94q-49 -30 -110 -30q-27 9 -59 9q-36 0 -103 -16t-97 -16q-74 0 -118 69q-29 45 -29 85q0 65 85 126l147 93q185 0 331 -175z" />
    <glyph glyph-name="Aacute" unicode="&#xc1;" horiz-adv-x="1902" 
d="M1373 725q-180 799 -749 929q-216 -47 -380 -210q-103 -350 -103 -511q0 -146 54 -278q130 0 388 22t385 22q211 0 375 -44q0 60 30 70zM1203 1564q252 -361 459 -1079q-66 -57 -66 -136q0 -57 44 -160t44 -141q0 -84 -141 -112q-72 66 -90 200l-30 230
q-100 -28 -220 -28q-103 0 -314.5 30t-322.5 30q-135 0 -252 -32q-5 -20 -5 -41q0 -47 42.5 -142.5t42.5 -147.5t-30 -99q-24 -4 -47 -4q-113 0 -176 112q-1 3 -91 235q-58 150 -145 206q14 85 26 465q10 303 71 466q87 234 312 337q117 54 243 54q152 0 338 -82
q51 -23 308 -161zM828 2426q13 -45 13 -84q0 -112 -140 -202q-177 -114 -212 -173q-15 5 -31 5q-21 0 -61.5 -12.5t-58.5 -12.5q-42 0 -69 50q202 354 479 499z" />
    <glyph glyph-name="Edieresis" unicode="&#xcb;" horiz-adv-x="2026" 
d="M1478 1751q-17 -127 -183 -127q-26 0 -84 3t-87 3q-94 0 -146 -29q-64 -6 -256 -44q-161 -32 -253 -32q-48 0 -90 6q-51 -74 -51 -236q0 -36 3 -110.5t3 -110.5q0 -52 -5 -92q0 -24 28 -53q42 -46 42 -47q25 4 212 44q140 30 226 30q158 0 241 -94q9 -21 9 -41
q0 -46 -48 -89l-81 -59q-78 47 -173 47q-91 0 -220 -48l-206 -79q-32 -180 -32 -216q0 -115 72 -164q53 8 114 8q71 0 208 -14.5t202 -14.5q166 0 275 71q40 -21 100 -21q52 0 166 23.5t163 23.5q160 0 170 -195q-12 -103 -147 -103q-27 0 -77 4.5t-70 4.5q-29 0 -45 -6
l-556 -60q-326 -31 -568 -31q-48 0 -94 1q-197 264 -197 812q0 73 3 219.5t3 217.5q0 298 -49 478q-12 44 -12 74q0 80 129 90q140 11 162 96q130 -25 309 -25q62 0 183.5 4t179.5 4q343 0 527 -123zM1339 2282q0 -172 -201 -172q-61 0 -109 22q-130 16 -149 150
q-7 21 -7 43q0 62 46 111t110 55q22 5 44 5q88 0 166 -67q71 -62 100 -147zM530 2132l-20 -190q-70 -28 -141 -28q-154 0 -418 198l-45 157q0 53 45 83q52 5 103 5q358 0 476 -225z" />
    <glyph glyph-name="Egrave" unicode="&#xc8;" horiz-adv-x="2026" 
d="M1478 1751q-17 -127 -183 -127q-26 0 -84 3t-87 3q-94 0 -146 -29q-64 -6 -256 -44q-161 -32 -253 -32q-48 0 -90 6q-51 -74 -51 -236q0 -36 3 -110.5t3 -110.5q0 -52 -5 -92q0 -24 28 -53q42 -46 42 -47q25 4 212 44q140 30 226 30q158 0 241 -94q9 -21 9 -41
q0 -46 -48 -89l-81 -59q-78 47 -173 47q-91 0 -220 -48l-206 -79q-32 -180 -32 -216q0 -115 72 -164q53 8 114 8q71 0 208 -14.5t202 -14.5q166 0 275 71q40 -21 100 -21q52 0 166 23.5t163 23.5q160 0 170 -195q-12 -103 -147 -103q-27 0 -77 4.5t-70 4.5q-29 0 -45 -6
l-556 -60q-326 -31 -568 -31q-48 0 -94 1q-197 264 -197 812q0 73 3 219.5t3 217.5q0 298 -49 478q-12 44 -12 74q0 80 129 90q140 11 162 96q130 -25 309 -25q62 0 183.5 4t179.5 4q343 0 527 -123zM909 2098l-90 -70q-85 49 -436 128q-274 63 -383 211q-2 16 -2 29
q0 101 117 101t195 -60q72 -55 220 -96q176 -47 226 -73q113 -57 153 -170z" />
    <glyph glyph-name="Iacute" unicode="&#xcd;" horiz-adv-x="843" 
d="M260 1637q28 -584 49 -826q42 -487 121 -782q-30 -47 -109 -48q-127 -1 -131 -2q-120 211 -136 674q-20 566 -54 704q8 25 8 56q0 36 -14.5 116t-14.5 120q0 101 71 158q75 0 137 -44q69 -49 73 -126zM514 2426q13 -45 13 -84q0 -112 -139 -202q-177 -114 -213 -173
q-15 5 -31 5q-21 0 -61 -12.5t-58 -12.5q-43 0 -70 50q202 354 479 499z" />
    <glyph glyph-name="Idieresis" unicode="&#xcf;" horiz-adv-x="843" 
d="M260 1637q28 -584 49 -826q42 -487 121 -782q-30 -47 -109 -48q-127 -1 -131 -2q-120 211 -136 674q-20 566 -54 704q8 25 8 56q0 36 -14.5 116t-14.5 120q0 101 71 158q75 0 137 -44q69 -49 73 -126zM713 2282q0 -172 -202 -172q-60 0 -108 22q-130 16 -150 150
q-6 21 -6 43q0 62 46 111t110 55q22 5 44 5q88 0 165 -67q72 -62 101 -147zM-96 2132l-20 -190q-70 -28 -141 -28q-154 0 -418 198l-45 157q0 53 45 83q52 5 103 5q358 0 476 -225z" />
    <glyph glyph-name="Igrave" unicode="&#xcc;" horiz-adv-x="843" 
d="M260 1637q28 -584 49 -826q42 -487 121 -782q-30 -47 -109 -48q-127 -1 -131 -2q-120 211 -136 674q-20 566 -54 704q8 25 8 56q0 36 -14.5 116t-14.5 120q0 101 71 158q75 0 137 -44q69 -49 73 -126zM362 2098l-90 -70q-85 49 -436 128q-274 63 -383 211q-2 16 -2 29
q0 101 117 101t195 -60q72 -55 220 -96q176 -47 226 -73q114 -57 153 -170z" />
    <glyph glyph-name="Oacute" unicode="&#xd3;" horiz-adv-x="2113" 
d="M1656 1049q-294 515 -768 529l-256 -69q-156 -43 -174 -151q-278 -132 -278 -487q0 -55 9 -112q18 -120 153 -206l236 -123q320 -52 490 -52q367 0 588 191q54 100 54 244q0 142 -54 236zM1706 1238q164 -333 164 -581q0 -188 -94 -327q-556 -259 -942 -259
q-320 0 -546 169l-263 293q-143 178 -146 346q-4 288 185 536q177 232 444 333q156 59 320 59q275 0 515 -157q237 -155 363 -412zM1094 2426q14 -45 14 -84q0 -112 -140 -202q-177 -114 -213 -173q-14 5 -31 5q-21 0 -61 -12.5t-58 -12.5q-42 0 -70 50q203 354 480 499z
" />
    <glyph glyph-name="Ograve" unicode="&#xd2;" horiz-adv-x="2113" 
d="M1656 1049q-294 515 -768 529l-256 -69q-156 -43 -174 -151q-278 -132 -278 -487q0 -55 9 -112q18 -120 153 -206l236 -123q320 -52 490 -52q367 0 588 191q54 100 54 244q0 142 -54 236zM1706 1238q164 -333 164 -581q0 -188 -94 -327q-556 -259 -942 -259
q-320 0 -546 169l-263 293q-143 178 -146 346q-4 288 185 536q177 232 444 333q156 59 320 59q275 0 515 -157q237 -155 363 -412zM1161 2098l-90 -70q-85 49 -436 128q-274 63 -383 211q-2 16 -2 29q0 101 117 101t195 -60q72 -55 220 -96q176 -47 226 -73
q114 -57 153 -170z" />
    <glyph glyph-name="Uacute" unicode="&#xda;" horiz-adv-x="2235" 
d="M1318 1900q253 -384 337 -554q162 -328 162 -613q0 -162 -50 -320q-94 -300 -289 -410q-184 -70 -403 -70q-417 0 -676 220q-519 573 -519 1137q0 259 120 491q16 5 32 5q53 0 128 -125q-92 -197 -92 -416q0 -496 411 -932q205 -127 546 -127q167 0 293 37
q291 226 280 599q-8 243 -145 527l-255 481q-5 15 -5 27q0 43 125 43zM1042 2426q14 -45 14 -84q0 -112 -140 -202q-177 -114 -213 -173q-14 5 -31 5q-21 0 -61 -12.5t-58 -12.5q-42 0 -70 50q203 354 480 499z" />
    <glyph glyph-name="Ugrave" unicode="&#xd9;" horiz-adv-x="2235" 
d="M1318 1900q253 -384 337 -554q162 -328 162 -613q0 -162 -50 -320q-94 -300 -289 -410q-184 -70 -403 -70q-417 0 -676 220q-519 573 -519 1137q0 259 120 491q16 5 32 5q53 0 128 -125q-92 -197 -92 -416q0 -496 411 -932q205 -127 546 -127q167 0 293 37
q291 226 280 599q-8 243 -145 527l-255 481q-5 15 -5 27q0 43 125 43zM909 2098l-90 -70q-85 49 -436 128q-274 63 -383 211q-2 16 -2 29q0 101 117 101t195 -60q72 -55 220 -96q176 -47 226 -73q113 -57 153 -170z" />
    </font>
</defs>
</svg>
